<?xml version="1.0" encoding="UTF-8" standalone="no"?>
<!-- Created with Inkscape (http://www.inkscape.org/) -->

<svg
   xmlns:dc="http://purl.org/dc/elements/1.1/"
   xmlns:cc="http://creativecommons.org/ns#"
   xmlns:rdf="http://www.w3.org/1999/02/22-rdf-syntax-ns#"
   xmlns:svg="http://www.w3.org/2000/svg"
   xmlns="http://www.w3.org/2000/svg"
   xmlns:sodipodi="http://sodipodi.sourceforge.net/DTD/sodipodi-0.dtd"
   xmlns:inkscape="http://www.inkscape.org/namespaces/inkscape"
   width="350"
   height="150"
   viewBox="0 0 350 150"
   id="svg2"
   version="1.1"
   inkscape:version="0.91 r13725"
   sodipodi:docname="unsos-un-support-office-in-somalia.svg"
   inkscape:export-filename="/Users/alex/Downloads/unsos-un-support-office-in-somalia.png"
   inkscape:export-xdpi="90"
   inkscape:export-ydpi="90">
  <defs
     id="defs4">
    <inkscape:perspective
       id="perspective2518"
       inkscape:persp3d-origin="299.99994 : 169.52101 : 1"
       inkscape:vp_z="599.99988 : 254.28151 : 1"
       inkscape:vp_y="0 : 1000 : 0"
       inkscape:vp_x="0 : 254.28151 : 1"
       sodipodi:type="inkscape:persp3d" />
  </defs>
  <sodipodi:namedview
     id="base"
     pagecolor="#ffffff"
     bordercolor="#666666"
     borderopacity="1.0"
     inkscape:pageopacity="0.0"
     inkscape:pageshadow="2"
     inkscape:zoom="1.979899"
     inkscape:cx="125.3071"
     inkscape:cy="111.43545"
     inkscape:document-units="px"
     inkscape:current-layer="layer1"
     showgrid="false"
     units="px"
     inkscape:window-width="1920"
     inkscape:window-height="1031"
     inkscape:window-x="0"
     inkscape:window-y="1"
     inkscape:window-maximized="1" />
  <metadata
     id="metadata7">
    <rdf:RDF>
      <cc:Work
         rdf:about="">
        <dc:format>image/svg+xml</dc:format>
        <dc:type
           rdf:resource="http://purl.org/dc/dcmitype/StillImage" />
        <dc:title />
      </cc:Work>
    </rdf:RDF>
  </metadata>
  <g
     inkscape:label="Layer 1"
     inkscape:groupmode="layer"
     id="layer1"
     transform="translate(0,-902.36216)">
    <g
       id="g4344">
      <path
         inkscape:connector-curvature="0"
         id="path4201"
         d=""
         style="fill:#000000" />
      <path
         d="m 60.182327,995.41107 0.316862,0.46283 c 0,1.72797 0.210055,3.49747 0,5.2039 1.558202,-0.5269 3.370369,-0.4421 5.056146,-0.7163 -0.337037,-0.1263 -0.674074,-0.2104 -0.926851,-0.54741 -0.989749,-0.0631 -1.453768,-1.09614 -1.769444,-1.8759 -0.148343,-0.56898 0.230823,-1.03235 0.463426,-1.51654 -0.421889,-0.8639 -1.7285,-0.23136 -2.486833,-0.54775 -0.211242,-0.16846 -0.358399,-0.42183 -0.653306,-0.46283 z m -24.063302,-1.47626 -0.06325,0.25332 -4.340714,4.3613 c 6.574651,5.68917 13.991123,9.35587 22.461784,10.51417 1.3488,0.2324 2.886709,0.1061 4.192786,0.5059 l -0.315438,-0.5059 0,-5.7094 0.210707,-0.3164 -0.653424,0.1691 c -8.21824,-0.5704 -15.487554,-3.4779 -21.492447,-9.27209 z m 46.777686,0.0635 -0.105621,-0.50555 c -0.589814,1.15898 -1.895832,1.89648 -2.886175,2.78127 -1.369508,1.36891 -3.602377,1.66417 -4.298999,3.64504 -0.736972,0.67334 -0.990343,1.72774 -2.022221,2.10694 -0.379167,1.0118 -1.453175,0.9489 -2.065538,1.6865 -1.769443,1.5801 -2.907536,-1.0118 -4.509054,-1.3281 l -3.223805,0.5692 c -1.116731,0 -2.234055,0.4006 -3.286109,0.043 0.147157,2.1487 0.147157,4.4663 0,6.6149 l 0.399341,-0.2517 c 10.156202,-0.4424 18.92272,-4.2989 26.444931,-11.12622 l -4.44675,-4.23498 z m -38.939562,-3.9406 c 0.126567,0.5055 0.801056,0.82189 0.610998,1.45377 -0.357687,0.5697 -1.095667,0.59106 -1.685125,0.5697 -1.201109,-0.19006 -2.086543,0.71484 -3.224398,0.84188 -1.032354,0.31686 -1.390455,-0.94756 -2.338965,-0.84188 5.858211,5.11952 12.558242,8.32253 20.397078,8.74323 l 0.590111,0.4013 -0.252659,-0.7163 0,-5.56288 -0.505555,0.2107 c -5.121061,-0.25283 -9.608932,-2.12849 -13.591485,-5.09952 z m -0.146979,-0.16852 c -0.274199,-0.16851 -0.442717,-0.33656 -0.505971,-0.65342 l 0.505971,0.65342 z m -0.674015,-0.90608 -0.08509,-0.14787 0.08509,0.25361 0,-0.10574 z m 33.881399,-0.80058 -0.146563,-0.40053 c -0.189287,0.50627 -0.568453,0.82123 -0.948807,1.20111 0.02077,0.33633 -0.10562,0.84325 0.295501,1.0746 0.842592,0.27468 1.937962,0.82189 2.127842,1.81211 -0.337037,0.9262 -2.107074,1.77016 -1.011704,2.78192 0.358398,0.50549 -0.504962,0.69466 -0.357212,1.11602 l 0.294314,-0.40006 c 1.264482,-0.98974 2.63399,-1.91707 3.750722,-3.14002 l 0.147157,0 c -0.252185,-0.0837 -0.569047,0.16923 -0.863954,0.0427 -0.589221,-0.27349 -0.694842,-0.80035 -0.694842,-1.41158 l -2.592454,-2.67624 z m -29.267198,-5.87951 c -1.243536,1.51773 -2.71819,3.09783 -4.193023,4.29941 0.653127,0.0415 1.010814,0.75845 1.558736,1.0746 3.161322,2.63358 7.100796,3.89794 10.767674,4.80403 l -1.011763,-0.46408 c -0.758867,-0.86336 -1.832757,-1.87489 -1.874946,-3.07647 0.758689,-0.25219 0.674074,-1.09496 0.92697,-1.66335 0.6323,-0.67473 1.39093,-1.03307 2.212398,-1.22312 -2.128257,0.88496 -3.982375,-0.6949 -5.752293,-1.51703 -0.906024,-0.67407 -2.086068,-1.22152 -2.633753,-2.23399 z m 20.333349,-0.5894 c -0.653306,0 -0.990343,0.50597 -1.47513,0.90579 -0.589221,0.33751 -0.884128,-0.63207 -1.369509,-0.39982 0.02136,0.10544 0.126983,0.14722 0.211242,0.18917 0.126389,0.14692 0.168518,0.4633 0,0.61117 -0.716203,0.65295 -1.054427,-0.31591 -1.727907,-0.25307 l 0,0.25307 c 0.02077,0.14793 -0.04213,0.37899 -0.252778,0.29556 -0.421889,-0.69608 -1.284656,-0.44343 -1.707139,-1.05466 -0.274139,-0.14645 -0.526917,0.0422 -0.716203,0.21094 -0.147751,0.31639 -0.821824,-0.041 -0.653306,0.50597 -0.526917,0.19012 -0.589814,0.75887 -0.968981,1.09502 -0.653365,-0.1055 -0.948628,0.63301 -1.559863,0.61189 0.06397,0.12656 0,0.3368 0.190058,0.3581 0.378988,0.16804 0.758155,0.21118 1.221758,0.14745 0.632241,-1.01176 1.686668,-0.16875 2.570796,-0.54774 0.548278,0.10502 0.169112,0.69537 0.569047,0.90584 0.863953,-0.27378 1.517259,0.73798 2.212694,0.10592 -0.04213,-0.99088 1.074601,-0.90674 1.685777,-1.15939 0.948213,-0.56858 2.022221,-1.32697 1.917194,-2.59187 l -0.14775,-0.18934 z m -2.38062,-1.58034 c -0.0629,0.16852 -0.294907,0.46379 0,0.56905 0.505556,-0.52686 1.580751,-0.50579 1.622287,-1.26442 -0.738158,-0.10568 -1.116731,0.29485 -1.622287,0.69537 z m -12.241972,-3.68705 c -0.906974,1.47442 -2.634762,2.82316 -3.899125,4.19255 2.254824,1.8543 4.783846,3.01351 7.58594,3.49836 0.147394,-0.56946 -0.08438,-1.28567 0.210885,-1.77033 0.210233,-0.46385 0.779516,-0.44248 1.200931,-0.3584 0.2526,-0.0211 0.400053,-0.33745 0.2526,-0.5484 -0.610524,-0.12585 -0.336978,-0.79987 -0.547448,-1.17957 0.02107,-0.21023 0.378989,-0.1687 0.294848,-0.44248 -0.421415,-0.33674 0.210885,-0.71644 -0.147454,-1.07407 0.147454,-0.10568 0.252659,-0.33774 0.463841,-0.33774 -1.327497,0.69537 -2.760616,-0.14764 -3.94066,-0.67426 -0.547685,-0.31567 -1.348741,-0.63182 -1.474358,-1.30566 z m 26.549423,0 c -0.610582,-0.0427 -1.348741,0.31574 -1.875657,-0.10592 -0.190474,-0.16851 -0.315676,0.0844 -0.295501,0.25243 -0.210055,0.3171 -0.420703,0.71715 -0.90549,0.56952 -0.378573,-0.16852 -0.378573,-0.56952 -0.504962,-0.86413 0.02017,0.232 -0.06408,0.44247 -0.10562,0.65342 -0.443844,0.46354 -0.589815,0.90561 -0.906083,1.41182 -0.442658,0.48443 -1.158861,0.31615 -1.62288,0.7162 -0.08426,1.01153 -1.200397,0.80058 -1.833528,1.11697 -0.04154,0.12656 0.105621,0.14721 0.169705,0.25289 0.294314,0.0844 0.694249,0.0844 0.904897,-0.2107 0.885315,0.23183 0.696028,-0.8852 1.20099,-1.26395 0.443251,-0.0635 0.863954,-0.44313 1.327973,-0.14787 0.463425,0.56881 0.569046,1.39004 0.504961,2.12784 -0.504961,0.50526 -0.252777,1.32768 -0.610582,1.91731 0.08426,0.69562 -0.75774,1.01129 -0.652712,1.70738 -0.274733,0.31639 -0.738158,0.3581 -1.158861,0.3581 -1.66501,-0.6323 -3.414278,-1.03283 -5.268574,-1.20093 -0.167925,0.0626 -0.273546,0.21095 -0.252184,0.40053 0.757739,0.39987 1.685777,0.42118 2.485646,0.75869 0.71739,0.18863 1.201584,1.07407 2.107667,0.8001 0.758333,-0.42141 2.022815,0.25266 2.527776,-0.5475 -0.08307,-0.77993 0.591002,-1.34922 0.927445,-2.02299 l 0.253964,-0.0633 c 0.420703,0.44224 0.399935,1.09519 0.588628,1.58034 0.591001,-0.63207 1.054427,-1.32697 1.58075,-1.98063 1.390277,-2.02305 2.5705,-4.19278 3.076055,-6.5111 -0.568453,0.0211 -1.136906,0.12657 -1.663823,0.2955 z m -11.926831,-0.0427 c 0.02136,0.31639 0.06408,0.73756 0.338223,1.01152 0.821231,-0.1265 0.462239,1.01106 1.221165,0.90609 0.421296,-0.12657 0.02136,-0.4842 0.147751,-0.75863 -0.126389,-0.63236 -0.737565,-0.69514 -1.159454,-1.07502 -0.04154,-0.12591 0.04272,-0.23136 0.10562,-0.3368 -0.315082,-0.16828 -0.463425,0.0211 -0.653305,0.25284 z m -16.646119,-1.72749 c -0.126329,0.52614 -0.484431,0.99046 -0.864072,1.36915 l 0.06325,0.0422 c 0.505792,-0.35834 0.864131,-1.01171 1.517259,-1.05348 l -0.716441,-0.35786 z m -6.616365,-1.66489 c 0.59017,1.09584 0.905608,2.33849 1.517081,3.43504 0.379166,0.96886 1.221937,1.72732 1.6014,2.67529 0.40029,-0.75815 1.201109,-1.36963 1.769918,-2.06453 0.04243,-0.31639 -0.02083,-0.59058 -0.189346,-0.82188 -0.190058,-0.4423 -0.02136,-1.0746 -0.358339,-1.45401 -0.548219,0.18935 0.189108,0.73751 -0.04195,1.05348 -0.231831,0.14787 -0.484668,-0.0418 -0.506267,-0.25242 -0.484431,-0.0851 -0.86336,-0.50645 -1.010814,-0.94827 0.400291,-0.25284 -0.105442,-0.35834 -0.210885,-0.56905 -0.210708,-0.10544 -0.232484,-0.0843 -0.400765,0.1055 -0.10479,0 -0.231595,0.0208 -0.31526,-0.0417 0,-1.20182 -1.348741,-0.48491 -1.854771,-1.11744 z m -10.830216,-2.5921 -0.463603,0.21094 c -1.959502,-0.0422 -4.003856,0.12698 -5.858151,-0.14721 l 0.252837,0.35833 0.463841,3.87664 c 0.189583,1.49667 0.843007,2.9289 0.800343,4.40373 0.232247,-0.31591 0.08438,-0.94797 0.653662,-1.01105 -0.231832,-0.46378 0.442479,-0.86389 0.06278,-1.2646 0.18988,-1.01129 0.31615,-2.0437 1.201346,-2.78103 1.074839,-0.042 1.15898,-1.454 2.233759,-1.51726 0.547685,-0.0206 0.884959,0.71644 1.116969,0.96934 -0.674726,-0.82171 -0.632537,-2.16997 -0.463782,-3.09783 z m -8.239363,0 -0.568572,0.21094 -5.857676,-0.0422 c 0.337214,6.7427 2.127782,12.87434 5.161885,18.50101 1.496847,2.78097 3.68818,5.28911 5.605314,7.88049 l 4.193023,-4.34113 0.505258,-0.20999 c -0.715728,-0.50621 -1.34785,-1.32815 -1.958789,-2.02347 -0.69585,-0.18988 -1.412291,-0.67407 -1.76974,-1.3488 -0.210885,-0.2313 -0.02178,-0.652 -0.253312,-0.82052 L 30.5559,988.5411 c -0.737743,0.35768 -1.011051,-0.40118 -1.516785,-0.71621 -0.653186,-0.35834 -0.337036,-1.60282 -1.221758,-1.3701 -0.337749,-0.0208 -0.44248,-0.40076 -0.653662,-0.61171 -0.821468,0.0851 -1.03259,-0.82164 -1.47507,-1.26365 -0.08414,0.18935 0,0.44201 -0.252896,0.56899 -0.842533,0.1894 -1.137855,-0.84319 -1.706664,-1.26508 -0.147395,0.0642 -0.252837,0.23225 -0.463782,0.18941 -0.505971,-0.44159 -0.842296,-1.07365 -0.86342,-1.76974 -0.695375,-0.77904 -0.379641,-2.02258 -0.253311,-2.97079 0.126745,-0.25266 0.484905,-0.39982 0.421592,-0.71597 0.189168,-0.44271 0.653187,-0.48467 1.095904,-0.50579 0.168519,0.0841 0.3368,0.2529 0.421356,0.39982 0.27402,-0.16846 0.884959,0.0214 0.653186,-0.58964 0.358102,-0.31615 0.885197,-0.42142 1.369628,-0.50556 0.337274,0.42189 0.505555,0.90609 0.948509,1.30638 l -0.295322,-0.46361 c -0.505734,-2.06518 -0.906261,-4.17213 -1.011763,-6.40589 0.02136,-0.12609 -0.273962,-0.18935 -0.105443,-0.31591 l 0.04243,0.0635 c 0.0213,-0.46361 -0.02065,-0.86461 0.06302,-1.18052 z m 10.156676,-0.0837 0.31615,0.50573 c 0.04177,1.39028 0.589695,2.7182 0.294848,4.1293 0.232246,-0.40029 0.294847,-0.94756 0.800343,-1.20087 0.06355,-0.37947 -0.505496,-0.48378 -0.442242,-0.86342 0.400765,-0.78017 0.02089,-2.04436 1.053478,-2.38092 -0.737506,0.12633 -1.390693,0.27349 -2.022577,-0.18982 z m 49.158364,-0.0635 c 0.126982,1.28525 -0.210055,2.52879 -0.294314,3.79291 l 0.695435,0.75822 c 0.189287,0.29526 0.126389,0.7375 -0.14775,0.96975 -0.295501,0.18964 -0.67348,0.1681 -0.968981,-0.0637 -0.884722,2.82363 -1.917787,5.58401 -3.687824,8.04954 -0.694841,0.88472 -1.368915,2.10666 -2.275592,2.5705 l 1.917194,1.68649 c 0.105621,-0.10574 0.04332,-0.2742 0.0629,-0.42213 0,-0.2526 0.126982,-0.54744 0.443251,-0.50478 0.927444,-0.0225 0.948806,0.96839 1.475129,1.47436 -0.105621,0.80058 0.589815,1.43318 0.357805,2.17003 5.310704,-5.60466 7.965462,-12.47458 8.449062,-20.08045 l 0.295501,-0.33722 c -1.896426,0.18982 -3.897878,0.0628 -5.857202,0.0837 l -0.464612,-0.14716 z m 8.450842,0.14716 -0.358991,-0.25266 0.211241,0.56857 c -0.337037,7.01689 -2.67612,13.21256 -6.679619,18.71219 -0.779694,0.92691 -1.517852,2.06429 -2.486833,2.71772 1.601518,1.26436 3.370961,3.16084 4.698934,4.61461 l 0.169112,-0.31639 c 6.447609,-7.35298 10.112885,-15.86606 10.514006,-25.72813 l 0.252778,-0.50508 -0.316269,0.14745 -6.004359,0.0417 z m -14.413071,-0.29461 0.652712,0.65295 c 0.653306,0.44295 0.211242,1.39093 0.906083,1.77015 0.821824,0.42165 1.117325,1.36939 1.47513,2.08631 0.127575,-0.19006 0.127575,-0.42112 0.190473,-0.611 0.293721,-1.1594 0.252184,-2.46571 0.609989,-3.6038 -1.264481,0.0637 -2.717656,0.19006 -3.834387,-0.29461 z m 1.306018,-2.06495 c -0.168519,0.0849 -0.399935,0.0208 -0.611176,0.0421 0.189286,-0.0848 0.421889,-0.0421 0.611176,-0.0421 z m -39.445474,-0.7162 c -1.706426,0.54768 0.274436,1.83317 -0.147394,2.88659 -0.231594,0.61123 -0.863419,0.042 -1.306374,0.29532 l -0.168281,1.11632 c -0.253786,0.65336 -1.074779,0.16822 -1.454005,0.61094 -0.274436,0.42141 0.02089,0.86413 0.252659,1.20158 -0.589696,1.34809 1.327201,1.76974 1.306374,2.99215 0.590348,0.75798 -0.0839,1.85359 0.759104,2.52855 0.189346,1.36897 -0.190117,3.22303 1.011288,4.2971 l 0.210233,1.30756 c 0.253312,0.90602 -1.074601,0.67449 -0.905846,1.4746 0.252897,-0.12586 0.316388,0.21142 0.3368,0.29508 l 0,-0.0415 c 1.623176,-1.87613 3.498596,-3.85717 5.415671,-5.52093 l -0.800106,-0.80129 c -1.496432,-2.23353 -2.676891,-4.61421 -3.245048,-7.22689 l -0.611888,-0.31615 c -0.02089,0.67425 -0.337274,1.20134 -0.295085,1.87512 l -0.21047,0.25266 c -0.442242,-0.0209 -0.716203,-0.37899 -1.095666,-0.61076 -0.08456,-0.23201 -0.315913,-0.611 0.04266,-0.80082 0.21047,-0.0209 0.357865,0.0419 0.505556,0.14716 0.189345,-0.23154 0.105205,-0.56857 0.21047,-0.86336 0.06349,-0.50627 -0.379226,-0.96934 -0.06284,-1.41158 0.399816,-0.0422 0.694901,0.44224 0.86342,0.71596 0.400528,0.12657 0.716678,-0.2107 1.053952,-0.3581 0,-0.35786 0.50597,-0.84277 -0.04201,-1.05324 0.294848,-0.82194 0.08396,-1.68601 -0.0426,-2.48713 -0.231832,-0.69484 -1.011526,-0.56904 -1.580573,-0.50496 z m 18.31095,-5.20508 c -0.337036,-0.37917 -1.074127,-0.14716 -1.516369,0 0.419991,0.42189 0.252185,1.17963 0.505318,1.70714 -0.632122,1.05264 -1.686015,1.28525 -2.676001,1.58015 -0.273961,0.33704 -0.210707,1.0746 -0.86431,1.01111 -0.210707,0.46343 -0.92691,0.73757 -0.652712,1.41164 -0.337037,0.71721 -0.168993,1.64365 -0.358813,2.42364 -1.243298,0.77946 -0.884485,-1.03241 -1.516844,-1.41205 l -0.21047,0.35834 c -0.253312,0.063 -0.42183,-0.0839 -0.590349,-0.25266 -0.189583,-0.0637 -0.505496,-0.12657 -0.673777,0.0417 -0.274435,0.46402 -0.695613,0.84301 -0.59017,1.47555 -0.12627,0.37898 -0.758867,0.25218 -0.674014,0.65318 0.694901,-0.0211 1.453293,-0.14739 2.127604,-0.29485 0.484431,0.1261 0.884722,-0.232 1.369865,-0.25331 0.168459,0.0848 0.358101,0.25331 0.294788,0.50597 l 0.168993,0 c 0.337037,-0.25266 0.484194,-0.63206 0.337037,-1.01176 0.04195,-0.442 0.526383,-0.442 0.821883,-0.56857 0.273309,0.12657 0.105028,0.40053 0.146979,0.611 0.947976,0.35834 -0.231356,1.05371 -0.358101,1.55903 -0.253371,0.40029 0,1.30679 -0.800878,1.17998 -0.14692,-0.0424 -0.2526,-0.18958 -0.210411,-0.35857 l -0.105502,0 c -0.02083,0.33751 0.231832,0.80082 0.569047,0.94916 0.589933,-0.48485 0.610997,-1.30703 1.454005,-1.41247 0.442005,-0.4636 -0.190058,-1.17981 0.463604,-1.55879 1.095369,-0.0211 2.275414,-0.48467 3.139782,0.40005 -0.06379,0.37946 -0.211182,0.54774 0.104968,0.86389 -0.21047,0.48467 -0.358576,1.01177 -0.758629,1.41182 0.105205,0.27396 0.02089,0.611 -0.210707,0.80082 -0.295026,1.28525 -1.770156,0.67449 -2.633575,1.11631 1.327438,1.01171 2.92866,1.3907 4.656982,1.2646 0.906083,-0.0422 0.505556,-1.15868 0.968981,-1.66423 0.294907,-1.47555 1.643648,-0.46331 2.465472,-0.86431 0.315675,-0.63213 0.632537,-1.24289 0.716203,-1.9598 -0.52751,-0.33674 -0.736971,-0.9691 -0.568453,-1.58004 -0.358991,-0.48491 -0.316862,-1.3701 -1.096556,-1.45359 -0.125796,-0.16893 -0.02018,-0.37964 0.08545,-0.50603 -0.02195,-0.46402 0.441471,-0.61118 0.568453,-0.96898 -0.484787,-0.31686 -0.358992,-1.0123 -0.315676,-1.41164 -0.82301,0.23142 -0.907269,-0.84378 -1.517852,-1.0746 -0.14775,-0.48479 -0.674074,-0.56905 -1.09537,-0.6539 -1.011585,0.48479 -1.180341,-0.75893 -1.93897,-1.05324 -0.08438,-0.23142 -0.252659,-0.56905 0,-0.75893 0.379404,-0.31567 0.885196,-0.0421 1.327201,-0.0629 l -0.358102,-0.18988 z m -10.219514,-3.49735 0.463841,0 c 0.505733,0.50615 1.327438,0.39993 1.706842,1.0746 0.189168,0.37916 -0.358576,0.33763 -0.337215,0.6533 0.104968,0.0843 0.252659,0.10503 0.337215,0.25337 0.399875,0.14657 0.315972,-0.2326 0.463367,-0.40171 0.526382,-0.52573 0.611235,0.50674 1.117205,0.50674 0.357865,-0.2326 0.86342,-0.25337 1.116316,0.14716 0.336978,-0.29491 1.053656,-0.0214 1.158683,-0.56905 0.653662,-0.69484 0.295501,-1.77003 1.2646,-2.21269 0.337037,0.18988 -0.02107,0.50615 0.104553,0.80105 0.653661,0.27355 1.391879,-0.54827 1.917787,0.10503 -0.484194,-1.36951 -0.357864,-3.07665 -0.315438,-4.59331 -3.392442,0.44266 -6.511101,1.60211 -8.997756,4.23551 z m 11.336542,-4.40403 c 0.400528,1.20099 0.04213,2.97103 0.294907,4.3619 l 1.51726,0.50496 c 0.442657,-0.73697 1.412231,-0.88472 1.833527,-1.57956 0.274139,-0.23201 0.589815,0 0.800463,0.25277 0.0629,0.56846 -0.08426,1.13691 -0.252778,1.68519 -0.568453,1.13809 -1.917787,1.28525 -2.67612,2.10766 0.484787,0.27414 0.758333,-0.2326 1.159454,-0.33703 0.588628,0.0629 1.052054,0.56845 1.411046,0.94762 0.379759,0.16851 0.737564,-0.0629 1.074601,-0.18929 0.23201,-1.74868 2.423342,-1.49649 3.076055,-3.13955 l -0.399935,0.14716 c -0.167925,-0.23201 -0.589814,-0.12639 -0.569046,-0.50615 0.358398,-0.33644 0.821824,-0.86336 1.264481,-1.01111 -1.896425,-1.18022 -3.855749,-2.19133 -6.005545,-2.73902 -0.841999,-0.18988 -1.727907,-0.21124 -2.52837,-0.50555 z m -18.205507,-0.69544 c -2.908011,3.47659 -4.888399,7.31157 -5.668152,11.67287 -0.23201,1.0123 -0.105443,2.19193 -0.505734,3.14073 0.73798,-0.33822 1.81187,-0.21064 2.633575,-0.10621 -0.48449,-0.25218 -0.08414,-0.86395 -0.357449,-1.2004 -0.06349,-0.52751 -0.148106,-1.18022 0.357449,-1.51726 -0.06284,-0.86395 0.864072,-1.30661 0.948688,-2.0869 0.232009,-0.88412 1.243298,-0.29431 1.727254,-0.75833 0.316387,-0.16852 0.04266,-0.46283 0.04266,-0.69484 0.421592,-0.56905 1.074305,-0.54828 1.57986,-0.86395 0.358576,-0.54769 0.822121,-1.1381 1.412528,-1.47573 1.264126,0.0433 1.285013,-1.72672 2.486122,-1.76944 -1.643826,-1.24312 -3.202859,-2.90754 -4.656805,-4.34054 z m 34.282995,-0.21064 -0.105621,0.25337 c -1.937962,2.02162 -4.06699,4.10852 -5.920693,6.17347 0.126389,0.25278 0.337037,0.48478 0.569047,0.61117 0.08367,-0.50615 0.357805,-0.94821 0.400528,-1.47513 0.505555,-0.69484 1.263294,-0.25277 1.917193,-0.10502 1.010517,-0.23261 1.959917,0.23141 2.992389,0.21005 0.757739,0.37917 0.821824,1.34874 1.516072,1.7285 0.18988,0.27355 0.04272,0.58922 -0.210055,0.80046 0.210055,1.58016 0.968981,-0.42189 1.770631,-0.0427 0.336443,0.12698 0.758332,0.0849 1.010517,0.44266 0.126982,0.6533 0.927444,0.52692 0.968981,1.15886 -0.0623,0.31627 -0.399342,0.39993 -0.610583,0.56905 0.18988,0.63253 -0.652712,1.03247 -0.358398,1.70713 1.221758,0.23142 1.263888,-1.18022 1.833528,-1.81216 -0.316863,-1.09596 -0.547685,-2.21329 -1.180223,-3.18168 -0.696028,-0.14834 -1.116731,-0.96957 -1.811573,-1.11732 -1.349334,-0.52692 0.209462,-1.36951 0.04213,-2.16997 -0.716797,-1.34874 -1.854889,-2.55033 -2.82387,-3.75072 z m -40.309486,-5.8578 -0.04195,0.39994 -2.275889,2.88736 c -3.729241,5.11963 -5.499634,11.04092 -6.025779,17.48853 l 5.772883,-0.10443 0.548397,0.21064 c -0.232722,-0.14834 -0.168993,-0.40112 -0.253134,-0.61177 0.463604,-6.00495 2.570796,-11.35719 6.721393,-15.82411 -1.600984,-1.39087 -3.097119,-2.86541 -4.445919,-4.44616 z m 24.168507,-1.58075 0.211242,0.46402 -0.04154,5.71004 0.547092,-0.10502 c 3.49735,0.48478 6.700387,1.60092 9.460173,3.85634 l 0.148343,0.44206 c 0.948213,-1.32738 2.38062,-2.46547 3.497944,-3.72995 l 1.05324,-0.61058 -0.504962,-0.21065 c -2.318908,-1.93915 -4.846684,-3.41368 -7.587482,-4.38267 -2.127248,-0.75892 -4.465738,-1.0746 -6.784053,-1.43359 z m -2.212219,-0.0421 -0.357687,0.21124 c -5.352655,0.37917 -9.988395,2.61263 -14.055088,5.96283 1.601399,1.11732 3.033865,2.90812 4.488108,4.19337 0.105443,-0.14775 0.211123,-0.2955 0.316387,-0.46401 2.001453,-1.43241 4.066457,-2.73843 6.426486,-3.32943 1.053477,-0.10443 2.085415,-0.61058 3.181794,-0.35781 -0.231832,-1.98068 -0.231832,-4.17201 0,-6.21619 z m -27.708522,-4.40343 c -6.005367,6.67962 -9.713722,14.30686 -10.788561,23.00988 -0.231297,1.26448 -0.08461,2.56991 -0.336977,3.85575 2.107132,-0.16792 4.403671,-0.16792 6.510625,0 l -0.147631,-0.82182 c 0.400765,-6.72175 2.550146,-12.70594 6.321755,-18.05758 0.948212,-1.0752 1.643588,-2.42334 2.82292,-3.2244 -1.36939,-1.28525 -2.801856,-2.78174 -4.234974,-4.19338 l -0.147157,-0.56845 z m 57.945235,-0.14775 c -1.158268,1.55939 -2.738424,3.01375 -4.192192,4.50905 l -0.716797,0.14775 c 0.442657,0.10562 0.569046,0.63195 0.864547,0.94821 1.53684,0.82183 1.937962,2.46607 3.286702,3.39292 0.75774,1.58016 2.508195,2.80192 2.5705,4.61408 1.833527,4.04623 3.076054,8.32327 3.203036,13.0857 l -0.169112,0.25218 c 0.18988,0 0.358399,-0.0837 0.505556,-0.18929 l 6.067849,-0.10562 c -0.399341,-0.58981 -0.230229,-1.45377 -0.33585,-2.16997 -0.801056,-9.3771 -4.805148,-17.40487 -11.084239,-24.48501 z m -46.819934,1.91778 c -1.306611,0.90609 -2.507958,2.08572 -3.855334,2.88677 1.558321,0.99034 2.844045,2.63399 4.255862,3.94001 l 0.147631,0.39993 c 3.581788,-3.43385 7.943804,-5.4359 12.642382,-6.40547 1.116969,-0.10503 2.2337,-0.4842 3.329604,-0.25219 -0.08461,-2.00264 -0.253371,-4.08835 -0.04243,-6.06904 -6.110336,0.359 -11.588668,2.2127 -16.477719,5.49999 z m 37.823187,-5.6685 c -0.442658,0.42129 -0.821824,-0.37917 -1.222352,0.10502 -0.02077,0.23261 0.02077,0.44325 0.14775,0.61118 0.884722,0.31627 0.990342,1.60211 2.127842,1.3072 0.33763,-0.37976 -0.211242,-0.78028 -0.105621,-1.26448 -0.146564,-0.44266 -0.526917,-0.63194 -0.947619,-0.75892 z m -19.069283,-0.0421 0.211241,0.40052 c -0.04272,1.95992 0.08367,4.04563 -0.106214,5.87916 0.800463,-0.27473 1.62288,0.0629 2.422749,0.0843 4.130481,0.67407 8.02836,2.00145 11.337017,4.55118 -0.399934,-0.42189 -0.884128,-0.90608 -0.970168,-1.51726 0.06408,-0.0842 0.148344,-0.10502 0.253965,-0.0842 0.04154,-0.6539 -0.653899,-0.99035 -0.75952,-1.58075 0.105621,-0.12639 0.253371,-0.25219 0.464019,-0.1887 0.716204,0.67408 1.327973,1.41105 1.854296,2.17057 0.463426,-0.19048 0.843186,0.10502 1.179629,0.3578 0.611769,0.35781 0.232603,1.1375 0.696029,1.55939 0.08366,1.24312 1.600925,1.93796 1.516665,3.18168 0.02195,0.29431 0.379167,0.0629 0.505556,0.21005 l 1.265074,1.55998 c -0.232009,0.29432 -0.04213,0.65271 0.209462,0.86336 0.569046,0.25278 0.885908,-0.46342 1.454361,-0.3578 0.821824,0.46402 -0.125795,1.01051 -0.04154,1.51666 0.315082,0.0214 0.716203,-0.25218 0.968981,0.0635 0.10562,0.46343 -0.379167,0.75834 -0.569047,1.05384 0,0.46342 0.379167,0.3578 0.716204,0.46342 0.380353,-0.0208 0.611769,0.44207 0.506148,0.75774 1.053834,1.09656 -0.317455,2.27678 0.189287,3.43505 0.33763,0.75893 -0.08367,1.4959 -0.547092,2.06554 0.02077,0.92685 -0.82301,1.4953 -1.15886,2.27559 l -1.075195,0.21005 c -0.569047,0.56964 0.484193,1.26448 -0.08426,1.62288 l 2.358665,0.0421 -0.251591,-0.25337 c -0.337037,-0.92685 -0.252778,-2.16997 0.315675,-2.9912 0.358992,-0.75952 0.442658,-1.66501 1.117325,-2.31832 0.14775,-0.0415 0.421889,-0.31567 0.548278,0 0.04154,0.71621 -0.02136,1.53863 -0.358398,2.16998 0.67348,0.96957 0.589814,2.23405 0.652712,3.43564 2.086305,-0.12758 4.130481,-0.16912 6.17347,-0.14775 l -0.18988,-0.40053 c -0.315675,-3.89788 -1.116137,-7.5857 -2.739017,-10.91513 -0.442064,0.0208 -0.75774,0.37917 -1.263295,0.25278 -0.169112,-0.0629 -0.274139,-0.23201 -0.253371,-0.4213 -0.842592,-0.80046 -1.369509,-1.85429 -2.318315,-2.5705 -1.074008,0.10503 -1.557608,-1.13809 -2.528369,-1.26448 -0.863361,-0.3578 -0.27414,-1.74867 -1.51726,-1.36951 -0.610582,-0.25337 -1.200397,-0.7162 -1.326785,-1.41104 0,-1.09656 -0.211242,-2.27678 -1.202178,-2.99299 -0.757739,-0.27354 -1.073414,0.73757 -1.831747,0.56905 -0.42189,-0.21005 -0.233196,-0.75893 -0.358992,-1.11673 -0.14775,-0.31568 -0.506149,-0.54828 -0.442064,-0.96898 0.990936,-1.30661 -1.201584,-1.28584 -0.716203,-2.57109 -0.126389,-0.92685 -1.075195,-1.28525 -1.559982,-2.02222 -3.265935,-1.47632 -6.531869,-2.48684 -10.219693,-2.9295 -0.90549,-0.12579 -1.748082,0.0629 -2.527776,-0.35839 z m 4.909582,-5.2039 -3.034518,1.30661 c -0.252778,-0.10621 -0.737565,-0.2326 -0.90549,0.10444 -0.126982,0.10562 0,0.25337 0.04154,0.35899 1.116732,1.4324 3.054693,0.63135 4.44675,0.3578 1.011111,0.4213 1.980092,-0.0843 2.738425,-0.71679 l 0,-0.14716 c -0.716204,-1.01171 -2.064351,-1.15946 -3.286703,-1.26389 z m -7.227956,-3.18286 c -8.470662,0.33763 -15.992813,3.22499 -22.672254,8.02895 -1.285903,0.88472 -2.423995,2.23346 -3.72942,2.9918 l 0.188694,0 c 1.66489,1.22235 3.2457,2.97102 4.657279,4.48828 l 0.105443,-0.29431 c 6.15282,-5.60561 13.316871,-8.68167 21.534873,-9.06083 l -0.190058,-0.50615 -0.06331,-5.05733 0.168756,-0.59041 z m 2.35991,-0.21006 c 0.253371,1.66501 0.190473,3.94061 0.06349,5.81567 0,-0.18929 0.08426,-0.3584 0.18988,-0.50615 0.295501,-0.16852 0.547685,0.0849 0.674667,0.29491 0.02018,0.2955 0.146564,0.80105 -0.105621,0.96957 0.252185,0.0421 0.379167,-0.14775 0.610583,-0.14775 4.82473,0.35899 9.292248,1.77004 13.29634,4.04622 l 0,-0.10502 c 0.820638,-0.40053 1.875064,-0.92745 2.71825,-0.21124 1.010517,-0.37917 1.20099,0.86395 2.022221,1.0117 0.990342,0.58981 2.107073,1.68578 2.234056,2.84464 0.188693,0.37916 0.779694,0.65271 0.86336,1.05324 0.674667,-1.433 2.022814,-2.44411 3.182268,-3.68723 l 0.715017,-0.2955 c -6.362164,-6.06785 -13.926504,-9.41805 -22.355392,-10.5775 -1.348741,-0.23201 -2.823277,-0.10503 -4.10912,-0.50556 z m 37.128048,21.99818 c 4.382068,8.44966 5.625788,20.08117 2.781738,29.62637 -2.888545,11.27317 -12.370079,22.6731 -23.410409,27.308 -12.43298,6.0904 -30.090506,4.5731 -41.17338,-3.3716 -15.402939,-10.55675 -21.703392,-28.74113 -17.046825,-46.69327 2.823633,-10.66235 11.315656,-21.42972 21.703155,-26.38144 5.836849,-2.88617 12.221442,-4.42479 19.174488,-4.55118 15.887607,0.0214 31.059605,9.35574 37.971233,24.06312"
         style="fill:#648fcb;fill-opacity:1;fill-rule:nonzero;stroke:none"
         id="path4976"
         inkscape:connector-curvature="0" />
      <path
         d="m 98.932069,934.83054 c 3.097411,2.75979 4.488281,6.34258 5.393181,10.04999 l 0.50734,1.18081 c -4.48948,-3.2238 -8.55528,-7.56434 -11.420686,-12.13688 l -3.497944,-3.54008 c 3.076054,1.30661 6.384712,2.08631 9.018109,4.44616"
         style="fill:#648fcb;fill-opacity:1;fill-rule:nonzero;stroke:none"
         id="path4978"
         inkscape:connector-curvature="0" />
      <path
         d="m 20.589519,940.32994 c -2.065181,2.55032 -4.698519,4.23491 -7.037958,6.42684 1.264185,-2.61322 1.306789,-5.73141 3.097594,-8.13339 2.549672,-4.44616 7.269077,-6.00554 11.48364,-7.64919 -3.096882,2.71825 -5.246501,6.15329 -7.543276,9.35574"
         style="fill:#648fcb;fill-opacity:1;fill-rule:nonzero;stroke:none"
         id="path4980"
         inkscape:connector-curvature="0" />
      <path
         d="m 109.88933,944.98674 c 0.98974,4.4248 -0.44266,8.74456 0.46401,13.21208 l -0.0427,0.041 c -2.40317,-4.74048 -7.52221,-6.97453 -11.041515,-10.76679 -2.042989,-2.25423 -2.928897,-4.99384 -3.433859,-7.90138 2.022814,4.86746 7.458124,5.94146 10.576314,10.02982 1.05383,0.94762 1.39205,2.25482 2.06553,3.32883 l 0.10562,-0.10503 c -1.7908,-3.83498 -2.40198,-8.15415 -3.6451,-12.24251 -0.63253,-1.77003 -1.87565,-3.51871 -3.54007,-4.63544 4.08776,0.84259 7.64919,5.11964 8.49179,9.03947"
         style="fill:#648fcb;fill-opacity:1;fill-rule:nonzero;stroke:none"
         id="path4982"
         inkscape:connector-curvature="0" />
      <path
         d="m 16.754598,936.7062 c -4.172137,2.8654 -3.898413,8.0064 -5.225614,12.28404 -0.421177,1.58016 -1.15892,3.03393 -1.517496,4.65621 l 0.105917,0.0849 c 0.695138,-1.83293 1.917075,-3.56143 3.434156,-5.05733 2.971027,-2.73902 7.354108,-4.44616 8.807876,-8.49178 -0.06302,5.62578 -4.762069,10.05058 -9.250118,13.21208 -1.854059,1.62228 -3.6455756,3.47658 -4.6566268,5.56289 -0.1054427,-1.41224 0.2109447,-2.84524 0.1054427,-4.3619 -0.4844311,-4.90958 -0.8430074,-10.5146 2.6335751,-14.1603 1.496194,-1.87506 3.413803,-3.18167 5.562888,-3.72876"
         style="fill:#648fcb;fill-opacity:1;fill-rule:nonzero;stroke:none"
         id="path4984"
         inkscape:connector-curvature="0" />
      <path
         d="m 112.52332,945.95572 c 3.72876,5.05733 4.55118,13.10646 1.83352,18.90136 -1.0117,2.46488 -1.7285,5.07804 -2.12843,7.79593 -0.18988,-0.4633 -0.23201,-1.09584 -0.40053,-1.62222 -1.47454,-5.66816 -6.84754,-9.71438 -9.06083,-15.06662 -0.69544,-1.74867 -1.28525,-3.56084 -1.62288,-5.45726 2.36104,4.36189 8.17611,6.61731 9.75627,11.42068 0.6533,1.22235 0.61117,2.73961 1.01111,4.04563 0.0848,0 0.1697,-0.0629 0.1697,-0.14716 -0.69543,-4.95171 -0.48597,-10.13543 0.1887,-15.02425 -0.0415,-2.65476 -0.29432,-5.22525 -1.77004,-7.26943 0.94821,0.54828 1.3701,1.60211 2.02341,2.42334"
         style="fill:#648fcb;fill-opacity:1;fill-rule:nonzero;stroke:none"
         id="path4986"
         inkscape:connector-curvature="0" />
      <path
         d="m 7.8412196,944.37616 c -3.2023424,4.86745 -0.5472101,10.9982 -0.6953165,16.54032 l -0.42094,5.66851 c 0.062601,0.0415 0.062601,0.21064 0.2102327,0.14715 0.1895832,-0.63253 0.2322468,-1.30661 0.3588137,-1.95991 0.7579175,-4.57195 4.7196425,-7.81771 8.1964625,-10.97803 0.737506,-0.82182 1.390218,-1.66441 1.770156,-2.6334 -0.274199,2.2756 -0.990936,4.57196 -1.938674,6.67903 -2.697541,5.26798 -7.6909671,9.58716 -8.5969909,15.61424 C 6.2820089,967.68036 2.3421018,963.36 2.7426297,957.22925 2.615606,952.25617 4.6808288,948.18918 7.58862,944.48119 c 0.084378,-0.0421 0.147869,-0.12699 0.2525996,-0.10503"
         style="fill:#648fcb;fill-opacity:1;fill-rule:nonzero;stroke:none"
         id="path4988"
         inkscape:connector-curvature="0" />
      <path
         d="m 116.02067,978.76388 c -2.2121,3.13907 -4.88822,6.06815 -6.9324,9.27172 0.23201,-2.52902 0.52692,-5.64798 -0.46343,-8.05019 -1.70654,-5.16236 -3.20303,-10.4091 -3.68723,-16.07654 l 0.0623,-2.17057 c 1.28643,5.79431 6.97571,9.77692 6.61731,16.26648 0.12639,1.58075 -0.3584,2.90777 -0.6533,4.29823 l 0.10562,0.10574 0.25218,-0.29438 c 0.84378,-3.18197 1.26448,-6.53222 2.5705,-9.50354 1.87625,-4.27717 4.19338,-8.59753 3.24517,-13.7593 2.84404,6.08922 1.98068,14.22266 -1.11673,19.91235"
         style="fill:#648fcb;fill-opacity:1;fill-rule:nonzero;stroke:none"
         id="path4990"
         inkscape:connector-curvature="0" />
      <path
         d="m 6.2187552,976.74059 c 0.6116506,2.1285 0.7588669,4.42551 1.6224644,6.42726 0.084378,0.0421 0.1481657,-0.0424 0.2107074,-0.10574 -2.1697458,-6.06838 0.9489248,-11.69435 4.088055,-16.43559 0.758392,-1.28525 1.200634,-2.71765 1.580513,-4.19338 0.337274,2.73962 -0.358102,5.90052 -0.758867,8.74504 -0.75863,3.62398 -1.896663,7.05813 -2.886412,10.57762 -0.6531869,2.19175 -0.4849058,4.67816 -0.1481063,6.97512 l -0.3154973,-0.25331 c -2.2970128,-4.23569 -6.8478942,-7.54304 -8.19689,-12.17949 -1.11675257,-3.68729 -1.85429892,-7.96446 -1.09542846,-11.98932 0.35811291,-1.55939 0.63231729,-3.16091 1.30658086,-4.59331 -1.28571958,6.574 3.139326,11.3153 4.5928804,17.0251"
         style="fill:#648fcb;fill-opacity:1;fill-rule:nonzero;stroke:none"
         id="path4992"
         inkscape:connector-curvature="0" />
      <path
         d="m 107.31823,988.73092 c -0.14775,2.84404 -1.0746,5.37306 -2.57109,7.64854 l 0.25278,0 c 2.02341,-2.65464 3.60416,-5.47851 5.96401,-8.00753 3.66705,-3.5399 7.39523,-7.16364 7.88061,-12.07381 1.24312,8.1967 -3.3502,15.38187 -10.1562,20.01737 -2.80311,1.83412 -5.64715,3.54008 -8.34523,5.62681 l 0,-0.2521 c 4.13048,-6.86995 2.10708,-16.28936 4.65681,-23.83305 l 0.9488,-2.5279 c -0.52691,4.69858 1.51667,8.68113 1.36951,13.40167"
         style="fill:#648fcb;fill-opacity:1;fill-rule:nonzero;stroke:none"
         id="path4994"
         inkscape:connector-curvature="0" />
      <path
         d="m 16.838738,998.04393 c 0.442954,1.55874 1.349038,2.95017 1.938199,4.44607 -6.279091,-4.27802 -14.8336551,-8.34406 -17.6148676,-16.18237 -1.18048897,-2.69712 -1.30611743,-6.04803 -1.05346976,-9.14538 0.50552973,6.97488 8.00687776,10.66264 11.48363836,16.43481 0.821942,1.181 1.538146,2.48755 2.633575,3.4773 -0.168044,-0.73757 -0.86342,-1.36892 -1.116494,-2.12784 -1.221996,-2.42329 -1.664713,-5.31023 -1.369865,-8.23907 0.33769,-3.5612 1.833409,-6.8695 1.264363,-10.62004 3.055464,6.5953 2.128494,14.81354 3.834921,21.95652"
         style="fill:#648fcb;fill-opacity:1;fill-rule:nonzero;stroke:none"
         id="path4996"
         inkscape:connector-curvature="0" />
      <path
         d="m 97.963088,1003.2489 c -1.075789,1.8745 -2.613222,3.6873 -4.299,5.1619 0.548278,-0.021 1.032472,-0.5055 1.517259,-0.8219 4.530416,-4.5089 10.430343,-5.7736 15.318563,-9.43929 1.95992,-1.55992 3.75072,-3.60362 4.61527,-5.81626 -0.92745,7.48074 -8.36599,14.49735 -15.382649,16.73025 -3.624333,0.9695 -7.501443,1.2857 -11.020155,2.4868 5.964009,-5.1202 5.626379,-13.04316 9.608517,-19.06935 1.264481,-1.70714 2.317717,-3.49795 3.793447,-5.12018 -2.423345,4.8668 -1.37011,11.16797 -4.151252,15.88803"
         style="fill:#648fcb;fill-opacity:1;fill-rule:nonzero;stroke:none"
         id="path4998"
         inkscape:connector-curvature="0" />
      <path
         d="m 22.717539,996.92673 c 2.106955,5.18417 2.908248,11.04137 7.775344,14.96107 -5.267862,-1.7277 -11.441273,-1.2435 -16.07725,-4.4887 -5.0782191,-3.1183 -9.6084807,-8.40695 -10.5567172,-14.22274 3.4978727,7.92294 12.2631442,8.57574 18.1421822,13.40074 1.074602,0.949 2.212398,1.7695 3.434631,2.34 l 0.06373,-0.063 c -1.34874,-1.2218 -2.908663,-2.6134 -3.856698,-4.1929 -3.434156,-4.78383 -2.233462,-11.48434 -4.804021,-16.6251 2.339202,2.80114 4.467222,5.70933 5.878801,8.89113"
         style="fill:#648fcb;fill-opacity:1;fill-rule:nonzero;stroke:none"
         id="path5000"
         inkscape:connector-curvature="0" />
      <path
         d="m 85.214432,1012.3514 c -1.284656,0.8419 -2.907536,0.9902 -4.234322,1.6223 1.895833,0.042 3.623146,-0.6321 5.49821,-0.8219 6.954352,-1.0966 14.91922,0.021 19.78608,-5.8999 -1.81157,4.13 -6.341989,7.5857 -10.471284,9.0394 -7.101508,2.6756 -14.245146,-0.6105 -21.05056,-1.707 l -1.306018,-0.1686 0,-0.042 c 3.245166,-0.7368 6.40548,-1.7064 8.996747,-4.0449 3.814213,-3.6664 7.205942,-7.438 11.442044,-10.3254 -3.140139,4.025 -3.476582,9.7557 -8.660897,12.3482"
         style="fill:#648fcb;fill-opacity:1;fill-rule:nonzero;stroke:none"
         id="path5002"
         inkscape:connector-curvature="0" />
      <path
         d="m 36.476889,1010.4341 c 2.697304,2.3601 5.942351,3.4548 9.35562,4.1502 -0.82123,0.2955 -1.895535,0.2111 -2.781443,0.4427 -6.13146,1.5177 -12.958473,3.9832 -19.469396,1.7699 -4.235449,-1.3272 -8.596753,-4.6775 -10.725485,-8.8497 5.605314,6.3849 14.771114,4.2564 22.251314,5.9215 1.053478,0.1465 2.023052,0.5683 3.139546,0.3994 -0.885197,-0.5686 -2.12802,-0.5058 -3.097594,-1.0106 -5.857499,-2.0655 -6.721808,-8.4081 -9.903305,-12.6845 4.06693,2.6968 7.480437,6.3419 11.230743,9.8611"
         style="fill:#648fcb;fill-opacity:1;fill-rule:nonzero;stroke:none"
         id="path5004"
         inkscape:connector-curvature="0" />
      <path
         d="m 82.243999,1019.073 c 4.549997,1.6853 10.451701,1.222 14.348987,-1.5599 -2.001453,2.5077 -4.740471,4.2989 -7.585109,5.3107 -6.321221,2.3605 -12.916581,-0.1055 -17.847524,-3.8569 -2.002047,-1.264 -3.77149,-3.0974 -6.363351,-2.9289 -0.927444,-0.021 -1.833528,0.022 -2.63399,0.2533 4.803962,2.2343 9.250712,5.3096 13.337283,9.2502 -0.694248,0.7797 -1.579563,1.518 -2.422155,2.1909 -3.919834,-4.2339 -8.281138,-8.3015 -13.14859,-10.6827 -0.948451,0.1259 -1.854296,0.6954 -2.718369,1.1601 -3.961488,2.5064 -7.880965,5.7307 -10.830927,9.6702 l -2.528607,-2.0852 c 4.046103,-4.0889 8.512612,-7.2692 13.401723,-9.5457 -4.804495,-1.517 -7.943566,2.5071 -11.589379,4.5519 -4.256277,2.9706 -10.366671,4.3613 -15.507907,2.3172 -2.760617,-1.054 -5.436558,-2.5907 -7.438545,-5.0989 4.045866,2.7817 10.072357,3.0772 14.665671,1.2644 6.174123,-2.676 12.579781,-6.0684 20.01708,-4.4461 1.159454,0.021 2.29725,1.1795 3.393213,0.1894 5.520758,-1.4332 11.778488,-0.4427 16.54032,2.0863 l 4.910176,1.9597"
         style="fill:#648fcb;fill-opacity:1;fill-rule:nonzero;stroke:none"
         id="path5006"
         inkscape:connector-curvature="0" />
      <path
         d="m 135.32829,933.71343 0,28.91947 q 0,2.19894 0.59972,4.59779 0.59971,2.33222 1.99904,4.33126 1.39933,1.99904 3.66491,3.2651 2.26558,1.26606 5.59731,1.26606 3.33174,0 5.59732,-1.26606 2.26558,-1.26606 3.66491,-3.2651 1.39933,-1.99904 1.99904,-4.33126 0.59971,-2.39885 0.59971,-4.59779 l 0,-28.91947 6.39693,0 0,29.91899 q 0,4.13135 -1.39932,7.52972 -1.39933,3.33174 -3.86482,5.79722 -2.46548,2.46548 -5.79722,3.79818 -3.33173,1.33269 -7.19655,1.33269 -3.86481,0 -7.19655,-1.33269 -3.33173,-1.3327 -5.79722,-3.79818 -2.46548,-2.46548 -3.86481,-5.79722 -1.39933,-3.39837 -1.39933,-7.52972 l 0,-29.91899 6.39693,0 z"
         style="font-style:normal;font-variant:normal;font-weight:500;font-stretch:normal;font-size:66.63471222px;line-height:125%;font-family:Avenir;-inkscape-font-specification:'Avenir Medium';text-align:center;letter-spacing:0px;word-spacing:0px;text-anchor:middle;fill:#648fcb;fill-opacity:1;stroke:none;stroke-width:1px;stroke-linecap:butt;stroke-linejoin:miter;stroke-opacity:1"
         id="path4294"
         inkscape:connector-curvature="0" />
      <path
         d="m 176.78029,933.71343 8.39597,0 25.98754,38.7814 0.13327,0 0,-38.7814 6.39693,0 0,47.17738 -8.12943,0 -26.25408,-38.7814 -0.13327,0 0,38.7814 -6.39693,0 0,-47.17738 z"
         style="font-style:normal;font-variant:normal;font-weight:500;font-stretch:normal;font-size:66.63471222px;line-height:125%;font-family:Avenir;-inkscape-font-specification:'Avenir Medium';text-align:center;letter-spacing:0px;word-spacing:0px;text-anchor:middle;fill:#648fcb;fill-opacity:1;stroke:none;stroke-width:1px;stroke-linecap:butt;stroke-linejoin:miter;stroke-opacity:1"
         id="path4296"
         inkscape:connector-curvature="0" />
      <path
         d="m 231.27916,971.02887 q 1.7325,2.59875 4.39789,3.86481 2.73202,1.19943 5.59731,1.19943 1.59924,0 3.2651,-0.46644 1.66587,-0.53308 2.99857,-1.5326 1.39933,-0.99952 2.26558,-2.46549 0.86625,-1.46596 0.86625,-3.39837 0,-2.73202 -1.7325,-4.13135 -1.73251,-1.46596 -4.33126,-2.39885 -2.53212,-0.99952 -5.59732,-1.86577 -2.99856,-0.93289 -5.59731,-2.53212 -2.53212,-1.59923 -4.26462,-4.26462 -1.73251,-2.73202 -1.73251,-7.32982 0,-2.06568 0.86625,-4.39789 0.93289,-2.33222 2.8653,-4.26462 1.9324,-1.93241 4.93097,-3.19847 3.06519,-1.33269 7.32981,-1.33269 3.86482,0 7.39646,1.06615 3.53164,1.06616 6.19703,4.33126 l -5.19751,4.73106 q -1.19943,-1.86577 -3.39837,-2.99856 -2.19895,-1.13279 -4.99761,-1.13279 -2.66538,0 -4.46452,0.73298 -1.7325,0.66635 -2.79866,1.79914 -1.06615,1.06616 -1.5326,2.33222 -0.39981,1.26605 -0.39981,2.33221 0,2.99856 1.73251,4.5978 1.7325,1.59923 4.26462,2.59875 2.59875,0.99952 5.59731,1.79914 3.0652,0.79961 5.59732,2.26558 2.59875,1.39933 4.33126,3.86481 1.7325,2.39885 1.7325,6.66347 0,3.39837 -1.3327,6.13039 -1.26605,2.73203 -3.465,4.5978 -2.19895,1.86577 -5.19751,2.86529 -2.99856,0.99952 -6.39693,0.99952 -4.53116,0 -8.59588,-1.59923 -4.06472,-1.59923 -6.46357,-4.93097 l 5.26415,-4.53116 z"
         style="font-style:normal;font-variant:normal;font-weight:500;font-stretch:normal;font-size:66.63471222px;line-height:125%;font-family:Avenir;-inkscape-font-specification:'Avenir Medium';text-align:center;letter-spacing:0px;word-spacing:0px;text-anchor:middle;fill:#648fcb;fill-opacity:1;stroke:none;stroke-width:1px;stroke-linecap:butt;stroke-linejoin:miter;stroke-opacity:1"
         id="path4298"
         inkscape:connector-curvature="0" />
      <path
         d="m 288.62769,982.09023 q -5.39741,0 -9.92857,-1.86577 -4.53116,-1.93241 -7.79626,-5.26414 -3.19847,-3.33174 -5.06424,-7.8629 -1.79914,-4.53116 -1.79914,-9.7953 0,-5.26414 1.79914,-9.7953 1.86577,-4.53116 5.06424,-7.8629 3.2651,-3.33173 7.79626,-5.19751 4.53116,-1.9324 9.92857,-1.9324 5.39741,0 9.92857,1.9324 4.53117,1.86578 7.72963,5.19751 3.2651,3.33174 5.06424,7.8629 1.86577,4.53116 1.86577,9.7953 0,5.26414 -1.86577,9.7953 -1.79914,4.53116 -5.06424,7.8629 -3.19846,3.33173 -7.72963,5.26414 -4.53116,1.86577 -9.92857,1.86577 z m 0,-5.99712 q 4.06472,0 7.32982,-1.46596 3.2651,-1.5326 5.59732,-4.06472 2.33221,-2.53212 3.59827,-5.93049 1.26606,-3.46501 1.26606,-7.32982 0,-3.86481 -1.26606,-7.26318 -1.26606,-3.46501 -3.59827,-5.99713 -2.33222,-2.53212 -5.59732,-3.99808 -3.2651,-1.5326 -7.32982,-1.5326 -4.06471,0 -7.32982,1.5326 -3.2651,1.46596 -5.59731,3.99808 -2.33222,2.53212 -3.59828,5.99713 -1.26606,3.39837 -1.26606,7.26318 0,3.86481 1.26606,7.32982 1.26606,3.39837 3.59828,5.93049 2.33221,2.53212 5.59731,4.06472 3.26511,1.46596 7.32982,1.46596 z"
         style="font-style:normal;font-variant:normal;font-weight:500;font-stretch:normal;font-size:66.63471222px;line-height:125%;font-family:Avenir;-inkscape-font-specification:'Avenir Medium';text-align:center;letter-spacing:0px;word-spacing:0px;text-anchor:middle;fill:#648fcb;fill-opacity:1;stroke:none;stroke-width:1px;stroke-linecap:butt;stroke-linejoin:miter;stroke-opacity:1"
         id="path4300"
         inkscape:connector-curvature="0" />
      <path
         d="m 323.81291,971.02887 q 1.7325,2.59875 4.39789,3.86481 2.73202,1.19943 5.59732,1.19943 1.59923,0 3.2651,-0.46644 1.66586,-0.53308 2.99856,-1.5326 1.39933,-0.99952 2.26558,-2.46549 0.86625,-1.46596 0.86625,-3.39837 0,-2.73202 -1.7325,-4.13135 -1.7325,-1.46596 -4.33126,-2.39885 -2.53212,-0.99952 -5.59731,-1.86577 -2.99857,-0.93289 -5.59732,-2.53212 -2.53212,-1.59923 -4.26462,-4.26462 -1.7325,-2.73202 -1.7325,-7.32982 0,-2.06568 0.86625,-4.39789 0.93288,-2.33222 2.86529,-4.26462 1.93241,-1.93241 4.93097,-3.19847 3.0652,-1.33269 7.32982,-1.33269 3.86481,0 7.39645,1.06615 3.53164,1.06616 6.19703,4.33126 l -5.19751,4.73106 q -1.19942,-1.86577 -3.39837,-2.99856 -2.19895,-1.13279 -4.9976,-1.13279 -2.66539,0 -4.46453,0.73298 -1.7325,0.66635 -2.79866,1.79914 -1.06615,1.06616 -1.5326,2.33222 -0.3998,1.26605 -0.3998,2.33221 0,2.99856 1.7325,4.5978 1.7325,1.59923 4.26462,2.59875 2.59875,0.99952 5.59732,1.79914 3.06519,0.79961 5.59731,2.26558 2.59876,1.39933 4.33126,3.86481 1.7325,2.39885 1.7325,6.66347 0,3.39837 -1.33269,6.13039 -1.26606,2.73203 -3.46501,4.5978 -2.19894,1.86577 -5.19751,2.86529 -2.99856,0.99952 -6.39693,0.99952 -4.53116,0 -8.59588,-1.59923 -4.06471,-1.59923 -6.46356,-4.93097 l 5.26414,-4.53116 z"
         style="font-style:normal;font-variant:normal;font-weight:500;font-stretch:normal;font-size:66.63471222px;line-height:125%;font-family:Avenir;-inkscape-font-specification:'Avenir Medium';text-align:center;letter-spacing:0px;word-spacing:0px;text-anchor:middle;fill:#648fcb;fill-opacity:1;stroke:none;stroke-width:1px;stroke-linecap:butt;stroke-linejoin:miter;stroke-opacity:1"
         id="path4302"
         inkscape:connector-curvature="0" />
      <path
         d="m 130.457,998.33982 0,5.42498 q 0,0.4125 0.1125,0.8625 0.1125,0.4375 0.375,0.8125 0.2625,0.375 0.6875,0.6125 0.425,0.2375 1.05,0.2375 0.625,0 1.05,-0.2375 0.425,-0.2375 0.6875,-0.6125 0.2625,-0.375 0.375,-0.8125 0.1125,-0.45 0.1125,-0.8625 l 0,-5.42498 1.2,0 0,5.61248 q 0,0.775 -0.2625,1.4125 -0.2625,0.625 -0.725,1.0875 -0.4625,0.4625 -1.0875,0.7125 -0.625,0.25 -1.35,0.25 -0.725,0 -1.35,-0.25 -0.625,-0.25 -1.0875,-0.7125 -0.4625,-0.4625 -0.725,-1.0875 -0.2625,-0.6375 -0.2625,-1.4125 l 0,-5.61248 1.2,0 z"
         style="font-style:normal;font-variant:normal;font-weight:500;font-stretch:normal;font-size:12.5px;line-height:125%;font-family:Avenir;-inkscape-font-specification:'Avenir Medium';text-align:start;letter-spacing:0px;word-spacing:0px;text-anchor:start;fill:#648fcb;fill-opacity:1;stroke:none;stroke-width:1px;stroke-linecap:butt;stroke-linejoin:miter;stroke-opacity:1"
         id="path4267"
         inkscape:connector-curvature="0" />
      <path
         d="m 138.23297,998.33982 1.575,0 4.875,7.27498 0.025,0 0,-7.27498 1.2,0 0,8.84998 -1.525,0 -4.925,-7.27498 -0.025,0 0,7.27498 -1.2,0 0,-8.84998 z"
         style="font-style:normal;font-variant:normal;font-weight:500;font-stretch:normal;font-size:12.5px;line-height:125%;font-family:Avenir;-inkscape-font-specification:'Avenir Medium';text-align:start;letter-spacing:0px;word-spacing:0px;text-anchor:start;fill:#648fcb;fill-opacity:1;stroke:none;stroke-width:1px;stroke-linecap:butt;stroke-linejoin:miter;stroke-opacity:1"
         id="path4269"
         inkscape:connector-curvature="0" />
      <path
         d="m 148.19391,998.33982 1.2,0 0,8.84998 -1.2,0 0,-8.84998 z"
         style="font-style:normal;font-variant:normal;font-weight:500;font-stretch:normal;font-size:12.5px;line-height:125%;font-family:Avenir;-inkscape-font-specification:'Avenir Medium';text-align:start;letter-spacing:0px;word-spacing:0px;text-anchor:start;fill:#648fcb;fill-opacity:1;stroke:none;stroke-width:1px;stroke-linecap:butt;stroke-linejoin:miter;stroke-opacity:1"
         id="path4271"
         inkscape:connector-curvature="0" />
      <path
         d="m 153.53512,999.46482 -2.85,0 0,-1.125 6.9,0 0,1.125 -2.85,0 0,7.72498 -1.2,0 0,-7.72498 z"
         style="font-style:normal;font-variant:normal;font-weight:500;font-stretch:normal;font-size:12.5px;line-height:125%;font-family:Avenir;-inkscape-font-specification:'Avenir Medium';text-align:start;letter-spacing:0px;word-spacing:0px;text-anchor:start;fill:#648fcb;fill-opacity:1;stroke:none;stroke-width:1px;stroke-linecap:butt;stroke-linejoin:miter;stroke-opacity:1"
         id="path4273"
         inkscape:connector-curvature="0" />
      <path
         d="m 158.88727,998.33982 5.7125,0 0,1.125 -4.5125,0 0,2.63748 4.2,0 0,1.125 -4.2,0 0,2.8375 4.7375,0 0,1.125 -5.9375,0 0,-8.84998 z"
         style="font-style:normal;font-variant:normal;font-weight:500;font-stretch:normal;font-size:12.5px;line-height:125%;font-family:Avenir;-inkscape-font-specification:'Avenir Medium';text-align:start;letter-spacing:0px;word-spacing:0px;text-anchor:start;fill:#648fcb;fill-opacity:1;stroke:none;stroke-width:1px;stroke-linecap:butt;stroke-linejoin:miter;stroke-opacity:1"
         id="path4275"
         inkscape:connector-curvature="0" />
      <path
         d="m 166.32887,998.33982 3.0875,0 q 0.9375,0 1.6375,0.2125 0.7125,0.2125 1.225,0.575 0.525,0.35 0.8625,0.8125 0.35,0.46248 0.55,0.94998 0.2,0.4875 0.2875,0.975 0.0875,0.4875 0.0875,0.9 0,0.85 -0.3125,1.65 -0.3125,0.7875 -0.925,1.4125 -0.6125,0.6125 -1.525,0.9875 -0.9,0.375 -2.0875,0.375 l -2.8875,0 0,-8.84998 z m 1.2,7.72498 1.5125,0 q 0.7625,0 1.4375,-0.2 0.6875,-0.2125 1.2,-0.625 0.5125,-0.4125 0.8125,-1.025 0.3,-0.625 0.3,-1.45 0,-0.425 -0.1375,-0.9875 -0.1375,-0.575 -0.525,-1.0875 -0.375,-0.5125 -1.05,-0.86248 -0.675,-0.3625 -1.75,-0.3625 l -1.8,0 0,6.59998 z"
         style="font-style:normal;font-variant:normal;font-weight:500;font-stretch:normal;font-size:12.5px;line-height:125%;font-family:Avenir;-inkscape-font-specification:'Avenir Medium';text-align:start;letter-spacing:0px;word-spacing:0px;text-anchor:start;fill:#648fcb;fill-opacity:1;stroke:none;stroke-width:1px;stroke-linecap:butt;stroke-linejoin:miter;stroke-opacity:1"
         id="path4277"
         inkscape:connector-curvature="0" />
      <path
         d="m 179.2486,998.33982 1.575,0 4.875,7.27498 0.025,0 0,-7.27498 1.2,0 0,8.84998 -1.525,0 -4.925,-7.27498 -0.025,0 0,7.27498 -1.2,0 0,-8.84998 z"
         style="font-style:normal;font-variant:normal;font-weight:500;font-stretch:normal;font-size:12.5px;line-height:125%;font-family:Avenir;-inkscape-font-specification:'Avenir Medium';text-align:start;letter-spacing:0px;word-spacing:0px;text-anchor:start;fill:#648fcb;fill-opacity:1;stroke:none;stroke-width:1px;stroke-linecap:butt;stroke-linejoin:miter;stroke-opacity:1"
         id="path4279"
         inkscape:connector-curvature="0" />
      <path
         d="m 191.98454,998.33982 1.0875,0 3.7875,8.84998 -1.4,0 -0.8875,-2.1875 -4.2125,0 -0.875,2.1875 -1.4,0 3.9,-8.84998 z m 2.15,5.61248 -1.65,-4.06248 -0.025,0 -1.675,4.06248 3.35,0 z"
         style="font-style:normal;font-variant:normal;font-weight:500;font-stretch:normal;font-size:12.5px;line-height:125%;font-family:Avenir;-inkscape-font-specification:'Avenir Medium';text-align:start;letter-spacing:0px;word-spacing:0px;text-anchor:start;fill:#648fcb;fill-opacity:1;stroke:none;stroke-width:1px;stroke-linecap:butt;stroke-linejoin:miter;stroke-opacity:1"
         id="path4281"
         inkscape:connector-curvature="0" />
      <path
         d="m 198.70114,999.46482 -2.85,0 0,-1.125 6.9,0 0,1.125 -2.85,0 0,7.72498 -1.2,0 0,-7.72498 z"
         style="font-style:normal;font-variant:normal;font-weight:500;font-stretch:normal;font-size:12.5px;line-height:125%;font-family:Avenir;-inkscape-font-specification:'Avenir Medium';text-align:start;letter-spacing:0px;word-spacing:0px;text-anchor:start;fill:#648fcb;fill-opacity:1;stroke:none;stroke-width:1px;stroke-linecap:butt;stroke-linejoin:miter;stroke-opacity:1"
         id="path4283"
         inkscape:connector-curvature="0" />
      <path
         d="m 204.05329,998.33982 1.2,0 0,8.84998 -1.2,0 0,-8.84998 z"
         style="font-style:normal;font-variant:normal;font-weight:500;font-stretch:normal;font-size:12.5px;line-height:125%;font-family:Avenir;-inkscape-font-specification:'Avenir Medium';text-align:start;letter-spacing:0px;word-spacing:0px;text-anchor:start;fill:#648fcb;fill-opacity:1;stroke:none;stroke-width:1px;stroke-linecap:butt;stroke-linejoin:miter;stroke-opacity:1"
         id="path4285"
         inkscape:connector-curvature="0" />
      <path
         d="m 211.607,1007.4148 q -1.0125,0 -1.8625,-0.35 -0.85,-0.3625 -1.4625,-0.9875 -0.6,-0.625 -0.95,-1.475 -0.3375,-0.85 -0.3375,-1.8375 0,-0.9875 0.3375,-1.8375 0.35,-0.85 0.95,-1.47498 0.6125,-0.625 1.4625,-0.975 0.85,-0.3625 1.8625,-0.3625 1.0125,0 1.8625,0.3625 0.85,0.35 1.45,0.975 0.6125,0.62498 0.95,1.47498 0.35,0.85 0.35,1.8375 0,0.9875 -0.35,1.8375 -0.3375,0.85 -0.95,1.475 -0.6,0.625 -1.45,0.9875 -0.85,0.35 -1.8625,0.35 z m 0,-1.125 q 0.7625,0 1.375,-0.275 0.6125,-0.2875 1.05,-0.7625 0.4375,-0.475 0.675,-1.1125 0.2375,-0.65 0.2375,-1.375 0,-0.725 -0.2375,-1.3625 -0.2375,-0.65 -0.675,-1.125 -0.4375,-0.47498 -1.05,-0.74998 -0.6125,-0.2875 -1.375,-0.2875 -0.7625,0 -1.375,0.2875 -0.6125,0.275 -1.05,0.74998 -0.4375,0.475 -0.675,1.125 -0.2375,0.6375 -0.2375,1.3625 0,0.725 0.2375,1.375 0.2375,0.6375 0.675,1.1125 0.4375,0.475 1.05,0.7625 0.6125,0.275 1.375,0.275 z"
         style="font-style:normal;font-variant:normal;font-weight:500;font-stretch:normal;font-size:12.5px;line-height:125%;font-family:Avenir;-inkscape-font-specification:'Avenir Medium';text-align:start;letter-spacing:0px;word-spacing:0px;text-anchor:start;fill:#648fcb;fill-opacity:1;stroke:none;stroke-width:1px;stroke-linecap:butt;stroke-linejoin:miter;stroke-opacity:1"
         id="path4287"
         inkscape:connector-curvature="0" />
      <path
         d="m 217.94489,998.33982 1.575,0 4.875,7.27498 0.025,0 0,-7.27498 1.2,0 0,8.84998 -1.525,0 -4.925,-7.27498 -0.025,0 0,7.27498 -1.2,0 0,-8.84998 z"
         style="font-style:normal;font-variant:normal;font-weight:500;font-stretch:normal;font-size:12.5px;line-height:125%;font-family:Avenir;-inkscape-font-specification:'Avenir Medium';text-align:start;letter-spacing:0px;word-spacing:0px;text-anchor:start;fill:#648fcb;fill-opacity:1;stroke:none;stroke-width:1px;stroke-linecap:butt;stroke-linejoin:miter;stroke-opacity:1"
         id="path4289"
         inkscape:connector-curvature="0" />
      <path
         d="m 228.16833,1005.3398 q 0.325,0.4875 0.825,0.725 0.5125,0.225 1.05,0.225 0.3,0 0.6125,-0.087 0.3125,-0.1 0.5625,-0.2875 0.2625,-0.1875 0.425,-0.4625 0.1625,-0.275 0.1625,-0.6375 0,-0.5125 -0.325,-0.775 -0.325,-0.275 -0.8125,-0.45 -0.475,-0.1875 -1.05,-0.35 -0.5625,-0.175 -1.05,-0.475 -0.475,-0.3 -0.8,-0.8 -0.325,-0.5125 -0.325,-1.375 0,-0.3875 0.1625,-0.82498 0.175,-0.4375 0.5375,-0.8 0.3625,-0.3625 0.925,-0.6 0.575,-0.25 1.375,-0.25 0.725,0 1.3875,0.2 0.6625,0.2 1.1625,0.8125 l -0.975,0.88748 q -0.225,-0.34998 -0.6375,-0.56248 -0.4125,-0.2125 -0.9375,-0.2125 -0.5,0 -0.8375,0.1375 -0.325,0.125 -0.525,0.3375 -0.2,0.2 -0.2875,0.43748 -0.075,0.2375 -0.075,0.4375 0,0.5625 0.325,0.8625 0.325,0.3 0.8,0.4875 0.4875,0.1875 1.05,0.3375 0.575,0.15 1.05,0.425 0.4875,0.2625 0.8125,0.725 0.325,0.45 0.325,1.25 0,0.6375 -0.25,1.15 -0.2375,0.5125 -0.65,0.8625 -0.4125,0.35 -0.975,0.5375 -0.5625,0.1875 -1.2,0.1875 -0.85,0 -1.6125,-0.3 -0.7625,-0.3 -1.2125,-0.925 l 0.9875,-0.85 z"
         style="font-style:normal;font-variant:normal;font-weight:500;font-stretch:normal;font-size:12.5px;line-height:125%;font-family:Avenir;-inkscape-font-specification:'Avenir Medium';text-align:start;letter-spacing:0px;word-spacing:0px;text-anchor:start;fill:#648fcb;fill-opacity:1;stroke:none;stroke-width:1px;stroke-linecap:butt;stroke-linejoin:miter;stroke-opacity:1"
         id="path4291"
         inkscape:connector-curvature="0" />
      <path
         d="m 133.607,1014.977 q -0.25,-0.3625 -0.675,-0.525 -0.4125,-0.175 -0.875,-0.175 -0.275,0 -0.5375,0.062 -0.25,0.062 -0.4625,0.2 -0.2,0.1375 -0.325,0.3625 -0.125,0.2125 -0.125,0.5125 0,0.45 0.3125,0.6875 0.3125,0.2375 0.775,0.4125 0.4625,0.175 1.0125,0.3375 0.55,0.1625 1.0125,0.45 0.4625,0.2875 0.775,0.7625 0.3125,0.475 0.3125,1.2625 0,0.7125 -0.2625,1.25 -0.2625,0.525 -0.7125,0.875 -0.4375,0.35 -1.025,0.525 -0.5875,0.175 -1.2375,0.175 -0.825,0 -1.5875,-0.275 -0.7625,-0.275 -1.3125,-0.925 l 1.1875,-1.15 q 0.2875,0.4375 0.75,0.6875 0.475,0.2375 1,0.2375 0.275,0 0.55,-0.075 0.275,-0.075 0.5,-0.225 0.225,-0.15 0.3625,-0.375 0.1375,-0.2375 0.1375,-0.5375 0,-0.4875 -0.3125,-0.75 -0.3125,-0.2625 -0.775,-0.4375 -0.4625,-0.1875 -1.0125,-0.35 -0.55,-0.1625 -1.0125,-0.4375 -0.4625,-0.2875 -0.775,-0.75 -0.3125,-0.475 -0.3125,-1.2625 0,-0.6875 0.275,-1.1875 0.2875,-0.5 0.7375,-0.825 0.4625,-0.3375 1.05,-0.5 0.5875,-0.1625 1.2,-0.1625 0.7,0 1.35,0.2125 0.6625,0.2125 1.1875,0.7 l -1.15,1.2125 z"
         style="font-style:normal;font-variant:normal;font-weight:900;font-stretch:normal;font-size:12.5px;line-height:125%;font-family:Avenir;-inkscape-font-specification:'Avenir Heavy';text-align:start;letter-spacing:0px;word-spacing:0px;text-anchor:start;fill:#648fcb;fill-opacity:1;stroke:none;stroke-width:1px;stroke-linecap:butt;stroke-linejoin:miter;stroke-opacity:1"
         id="path4222"
         inkscape:connector-curvature="0" />
      <path
         d="m 143.55915,1018.677 q 0,0.8 -0.275,1.45 -0.275,0.6375 -0.75,1.0875 -0.475,0.45 -1.125,0.7 -0.65,0.2375 -1.4125,0.2375 -0.7625,0 -1.4125,-0.2375 -0.65,-0.25 -1.1375,-0.7 -0.475,-0.45 -0.75,-1.0875 -0.2625,-0.65 -0.2625,-1.45 l 0,-5.6 1.575,0 0,5.55 q 0,0.325 0.1,0.6875 0.1,0.35 0.325,0.65 0.2375,0.3 0.6125,0.5 0.3875,0.1875 0.95,0.1875 0.5625,0 0.9375,-0.1875 0.3875,-0.2 0.6125,-0.5 0.2375,-0.3 0.3375,-0.65 0.1,-0.3625 0.1,-0.6875 l 0,-5.55 1.575,0 0,5.6 z"
         style="font-style:normal;font-variant:normal;font-weight:900;font-stretch:normal;font-size:12.5px;line-height:125%;font-family:Avenir;-inkscape-font-specification:'Avenir Heavy';text-align:start;letter-spacing:0px;word-spacing:0px;text-anchor:start;fill:#648fcb;fill-opacity:1;stroke:none;stroke-width:1px;stroke-linecap:butt;stroke-linejoin:miter;stroke-opacity:1"
         id="path4224"
         inkscape:connector-curvature="0" />
      <path
         d="m 145.50485,1013.077 2.975,0 q 0.6375,0 1.225,0.125 0.6,0.125 1.05,0.425 0.45,0.2875 0.7125,0.7875 0.275,0.4875 0.275,1.225 0,0.8375 -0.2875,1.35 -0.2875,0.5125 -0.775,0.8 -0.4875,0.275 -1.1375,0.375 -0.6375,0.1 -1.3375,0.1 l -1.125,0 0,3.6625 -1.575,0 0,-8.85 z m 2.525,3.8375 q 0.3375,0 0.7,-0.025 0.3625,-0.025 0.6625,-0.15 0.3125,-0.125 0.5,-0.375 0.2,-0.25 0.2,-0.7 0,-0.4125 -0.175,-0.65 -0.175,-0.25 -0.45,-0.375 -0.275,-0.1375 -0.6125,-0.175 -0.3375,-0.038 -0.65,-0.038 l -1.125,0 0,2.4875 0.95,0 z"
         style="font-style:normal;font-variant:normal;font-weight:900;font-stretch:normal;font-size:12.5px;line-height:125%;font-family:Avenir;-inkscape-font-specification:'Avenir Heavy';text-align:start;letter-spacing:0px;word-spacing:0px;text-anchor:start;fill:#648fcb;fill-opacity:1;stroke:none;stroke-width:1px;stroke-linecap:butt;stroke-linejoin:miter;stroke-opacity:1"
         id="path4226"
         inkscape:connector-curvature="0" />
      <path
         d="m 153.14645,1013.077 2.975,0 q 0.6375,0 1.225,0.125 0.6,0.125 1.05,0.425 0.45,0.2875 0.7125,0.7875 0.275,0.4875 0.275,1.225 0,0.8375 -0.2875,1.35 -0.2875,0.5125 -0.775,0.8 -0.4875,0.275 -1.1375,0.375 -0.6375,0.1 -1.3375,0.1 l -1.125,0 0,3.6625 -1.575,0 0,-8.85 z m 2.525,3.8375 q 0.3375,0 0.7,-0.025 0.3625,-0.025 0.6625,-0.15 0.3125,-0.125 0.5,-0.375 0.2,-0.25 0.2,-0.7 0,-0.4125 -0.175,-0.65 -0.175,-0.25 -0.45,-0.375 -0.275,-0.1375 -0.6125,-0.175 -0.3375,-0.038 -0.65,-0.038 l -1.125,0 0,2.4875 0.95,0 z"
         style="font-style:normal;font-variant:normal;font-weight:900;font-stretch:normal;font-size:12.5px;line-height:125%;font-family:Avenir;-inkscape-font-specification:'Avenir Heavy';text-align:start;letter-spacing:0px;word-spacing:0px;text-anchor:start;fill:#648fcb;fill-opacity:1;stroke:none;stroke-width:1px;stroke-linecap:butt;stroke-linejoin:miter;stroke-opacity:1"
         id="path4228"
         inkscape:connector-curvature="0" />
      <path
         d="m 160.31305,1017.5395 q 0,-1.0625 0.35,-1.925 0.35,-0.875 0.9625,-1.4875 0.625,-0.6125 1.475,-0.9375 0.8625,-0.3375 1.8875,-0.3375 1.0375,-0.012 1.9,0.3125 0.8625,0.3125 1.4875,0.925 0.625,0.6125 0.975,1.475 0.35,0.8625 0.35,1.925 0,1.0375 -0.35,1.8875 -0.35,0.85 -0.975,1.4625 -0.625,0.6125 -1.4875,0.9625 -0.8625,0.3375 -1.9,0.35 -1.025,0 -1.8875,-0.325 -0.85,-0.3375 -1.475,-0.9375 -0.6125,-0.6125 -0.9625,-1.4625 -0.35,-0.85 -0.35,-1.8875 z m 1.65,-0.1 q 0,0.7125 0.2125,1.3125 0.225,0.6 0.625,1.0375 0.4,0.4375 0.95,0.6875 0.5625,0.25 1.25,0.25 0.6875,0 1.25,-0.25 0.5625,-0.25 0.9625,-0.6875 0.4,-0.4375 0.6125,-1.0375 0.225,-0.6 0.225,-1.3125 0,-0.6625 -0.225,-1.2375 -0.2125,-0.575 -0.6125,-1 -0.4,-0.4375 -0.9625,-0.675 -0.5625,-0.25 -1.25,-0.25 -0.6875,0 -1.25,0.25 -0.55,0.2375 -0.95,0.675 -0.4,0.425 -0.625,1 -0.2125,0.575 -0.2125,1.2375 z"
         style="font-style:normal;font-variant:normal;font-weight:900;font-stretch:normal;font-size:12.5px;line-height:125%;font-family:Avenir;-inkscape-font-specification:'Avenir Heavy';text-align:start;letter-spacing:0px;word-spacing:0px;text-anchor:start;fill:#648fcb;fill-opacity:1;stroke:none;stroke-width:1px;stroke-linecap:butt;stroke-linejoin:miter;stroke-opacity:1"
         id="path4230"
         inkscape:connector-curvature="0" />
      <path
         d="m 171.21286,1013.077 3.075,0 q 0.6375,0 1.225,0.125 0.6,0.1125 1.0625,0.4 0.4625,0.2875 0.7375,0.775 0.275,0.4875 0.275,1.2375 0,0.9625 -0.5375,1.6125 -0.525,0.65 -1.5125,0.7875 l 2.35,3.9125 -1.9,0 -2.05,-3.75 -1.15,0 0,3.75 -1.575,0 0,-8.85 z m 2.8,3.75 q 0.3375,0 0.675,-0.025 0.3375,-0.038 0.6125,-0.15 0.2875,-0.125 0.4625,-0.3625 0.175,-0.25 0.175,-0.6875 0,-0.3875 -0.1625,-0.625 -0.1625,-0.2375 -0.425,-0.35 -0.2625,-0.125 -0.5875,-0.1625 -0.3125,-0.038 -0.6125,-0.038 l -1.3625,0 0,2.4 1.225,0 z"
         style="font-style:normal;font-variant:normal;font-weight:900;font-stretch:normal;font-size:12.5px;line-height:125%;font-family:Avenir;-inkscape-font-specification:'Avenir Heavy';text-align:start;letter-spacing:0px;word-spacing:0px;text-anchor:start;fill:#648fcb;fill-opacity:1;stroke:none;stroke-width:1px;stroke-linecap:butt;stroke-linejoin:miter;stroke-opacity:1"
         id="path4232"
         inkscape:connector-curvature="0" />
      <path
         d="m 180.67917,1014.502 -2.7125,0 0,-1.425 7,0 0,1.425 -2.7125,0 0,7.425 -1.575,0 0,-7.425 z"
         style="font-style:normal;font-variant:normal;font-weight:900;font-stretch:normal;font-size:12.5px;line-height:125%;font-family:Avenir;-inkscape-font-specification:'Avenir Heavy';text-align:start;letter-spacing:0px;word-spacing:0px;text-anchor:start;fill:#648fcb;fill-opacity:1;stroke:none;stroke-width:1px;stroke-linecap:butt;stroke-linejoin:miter;stroke-opacity:1"
         id="path4234"
         inkscape:connector-curvature="0" />
      <path
         d="m 189.31696,1017.5395 q 0,-1.0625 0.35,-1.925 0.35,-0.875 0.9625,-1.4875 0.625,-0.6125 1.475,-0.9375 0.8625,-0.3375 1.8875,-0.3375 1.0375,-0.012 1.9,0.3125 0.8625,0.3125 1.4875,0.925 0.625,0.6125 0.975,1.475 0.35,0.8625 0.35,1.925 0,1.0375 -0.35,1.8875 -0.35,0.85 -0.975,1.4625 -0.625,0.6125 -1.4875,0.9625 -0.8625,0.3375 -1.9,0.35 -1.025,0 -1.8875,-0.325 -0.85,-0.3375 -1.475,-0.9375 -0.6125,-0.6125 -0.9625,-1.4625 -0.35,-0.85 -0.35,-1.8875 z m 1.65,-0.1 q 0,0.7125 0.2125,1.3125 0.225,0.6 0.625,1.0375 0.4,0.4375 0.95,0.6875 0.5625,0.25 1.25,0.25 0.6875,0 1.25,-0.25 0.5625,-0.25 0.9625,-0.6875 0.4,-0.4375 0.6125,-1.0375 0.225,-0.6 0.225,-1.3125 0,-0.6625 -0.225,-1.2375 -0.2125,-0.575 -0.6125,-1 -0.4,-0.4375 -0.9625,-0.675 -0.5625,-0.25 -1.25,-0.25 -0.6875,0 -1.25,0.25 -0.55,0.2375 -0.95,0.675 -0.4,0.425 -0.625,1 -0.2125,0.575 -0.2125,1.2375 z"
         style="font-style:normal;font-variant:normal;font-weight:900;font-stretch:normal;font-size:12.5px;line-height:125%;font-family:Avenir;-inkscape-font-specification:'Avenir Heavy';text-align:start;letter-spacing:0px;word-spacing:0px;text-anchor:start;fill:#648fcb;fill-opacity:1;stroke:none;stroke-width:1px;stroke-linecap:butt;stroke-linejoin:miter;stroke-opacity:1"
         id="path4236"
         inkscape:connector-curvature="0" />
      <path
         d="m 200.21676,1013.077 5.7125,0 0,1.425 -4.1375,0 0,2.325 3.9,0 0,1.425 -3.9,0 0,3.675 -1.575,0 0,-8.85 z"
         style="font-style:normal;font-variant:normal;font-weight:900;font-stretch:normal;font-size:12.5px;line-height:125%;font-family:Avenir;-inkscape-font-specification:'Avenir Heavy';text-align:start;letter-spacing:0px;word-spacing:0px;text-anchor:start;fill:#648fcb;fill-opacity:1;stroke:none;stroke-width:1px;stroke-linecap:butt;stroke-linejoin:miter;stroke-opacity:1"
         id="path4238"
         inkscape:connector-curvature="0" />
      <path
         d="m 207.37008,1013.077 5.7125,0 0,1.425 -4.1375,0 0,2.325 3.9,0 0,1.425 -3.9,0 0,3.675 -1.575,0 0,-8.85 z"
         style="font-style:normal;font-variant:normal;font-weight:900;font-stretch:normal;font-size:12.5px;line-height:125%;font-family:Avenir;-inkscape-font-specification:'Avenir Heavy';text-align:start;letter-spacing:0px;word-spacing:0px;text-anchor:start;fill:#648fcb;fill-opacity:1;stroke:none;stroke-width:1px;stroke-linecap:butt;stroke-linejoin:miter;stroke-opacity:1"
         id="path4240"
         inkscape:connector-curvature="0" />
      <path
         d="m 214.4859,1013.077 1.575,0 0,8.85 -1.575,0 0,-8.85 z"
         style="font-style:normal;font-variant:normal;font-weight:900;font-stretch:normal;font-size:12.5px;line-height:125%;font-family:Avenir;-inkscape-font-specification:'Avenir Heavy';text-align:start;letter-spacing:0px;word-spacing:0px;text-anchor:start;fill:#648fcb;fill-opacity:1;stroke:none;stroke-width:1px;stroke-linecap:butt;stroke-linejoin:miter;stroke-opacity:1"
         id="path4242"
         inkscape:connector-curvature="0" />
      <path
         d="m 224.08961,1015.152 q -0.4875,-0.525 -0.95,-0.7 -0.45,-0.175 -0.9125,-0.175 -0.6875,0 -1.25,0.25 -0.55,0.2375 -0.95,0.675 -0.4,0.425 -0.625,1 -0.2125,0.575 -0.2125,1.2375 0,0.7125 0.2125,1.3125 0.225,0.6 0.625,1.0375 0.4,0.4375 0.95,0.6875 0.5625,0.25 1.25,0.25 0.5375,0 1.0375,-0.25 0.5125,-0.2625 0.95,-0.825 l 1.3,0.925 q -0.6,0.825 -1.4625,1.2 -0.8625,0.375 -1.8375,0.375 -1.025,0 -1.8875,-0.325 -0.85,-0.3375 -1.475,-0.9375 -0.6125,-0.6125 -0.9625,-1.4625 -0.35,-0.85 -0.35,-1.8875 0,-1.0625 0.35,-1.925 0.35,-0.875 0.9625,-1.4875 0.625,-0.6125 1.475,-0.9375 0.8625,-0.3375 1.8875,-0.3375 0.9,0 1.6625,0.325 0.775,0.3125 1.4375,1.075 l -1.225,0.9 z"
         style="font-style:normal;font-variant:normal;font-weight:900;font-stretch:normal;font-size:12.5px;line-height:125%;font-family:Avenir;-inkscape-font-specification:'Avenir Heavy';text-align:start;letter-spacing:0px;word-spacing:0px;text-anchor:start;fill:#648fcb;fill-opacity:1;stroke:none;stroke-width:1px;stroke-linecap:butt;stroke-linejoin:miter;stroke-opacity:1"
         id="path4244"
         inkscape:connector-curvature="0" />
      <path
         d="m 226.58395,1013.077 5.8625,0 0,1.425 -4.2875,0 0,2.175 4.0625,0 0,1.425 -4.0625,0 0,2.4 4.5125,0 0,1.425 -6.0875,0 0,-8.85 z"
         style="font-style:normal;font-variant:normal;font-weight:900;font-stretch:normal;font-size:12.5px;line-height:125%;font-family:Avenir;-inkscape-font-specification:'Avenir Heavy';text-align:start;letter-spacing:0px;word-spacing:0px;text-anchor:start;fill:#648fcb;fill-opacity:1;stroke:none;stroke-width:1px;stroke-linecap:butt;stroke-linejoin:miter;stroke-opacity:1"
         id="path4246"
         inkscape:connector-curvature="0" />
      <path
         d="m 237.89899,1013.077 1.575,0 0,8.85 -1.575,0 0,-8.85 z"
         style="font-style:normal;font-variant:normal;font-weight:900;font-stretch:normal;font-size:12.5px;line-height:125%;font-family:Avenir;-inkscape-font-specification:'Avenir Heavy';text-align:start;letter-spacing:0px;word-spacing:0px;text-anchor:start;fill:#648fcb;fill-opacity:1;stroke:none;stroke-width:1px;stroke-linecap:butt;stroke-linejoin:miter;stroke-opacity:1"
         id="path4248"
         inkscape:connector-curvature="0" />
      <path
         d="m 241.4277,1013.077 2.0875,0 4.2875,6.575 0.025,0 0,-6.575 1.575,0 0,8.85 -2,0 -4.375,-6.7875 -0.025,0 0,6.7875 -1.575,0 0,-8.85 z"
         style="font-style:normal;font-variant:normal;font-weight:900;font-stretch:normal;font-size:12.5px;line-height:125%;font-family:Avenir;-inkscape-font-specification:'Avenir Heavy';text-align:start;letter-spacing:0px;word-spacing:0px;text-anchor:start;fill:#648fcb;fill-opacity:1;stroke:none;stroke-width:1px;stroke-linecap:butt;stroke-linejoin:miter;stroke-opacity:1"
         id="path4250"
         inkscape:connector-curvature="0" />
      <path
         d="m 259.41266,1014.977 q -0.25,-0.3625 -0.675,-0.525 -0.4125,-0.175 -0.875,-0.175 -0.275,0 -0.5375,0.062 -0.25,0.062 -0.4625,0.2 -0.2,0.1375 -0.325,0.3625 -0.125,0.2125 -0.125,0.5125 0,0.45 0.3125,0.6875 0.3125,0.2375 0.775,0.4125 0.4625,0.175 1.0125,0.3375 0.55,0.1625 1.0125,0.45 0.4625,0.2875 0.775,0.7625 0.3125,0.475 0.3125,1.2625 0,0.7125 -0.2625,1.25 -0.2625,0.525 -0.7125,0.875 -0.4375,0.35 -1.025,0.525 -0.5875,0.175 -1.2375,0.175 -0.825,0 -1.5875,-0.275 -0.7625,-0.275 -1.3125,-0.925 l 1.1875,-1.15 q 0.2875,0.4375 0.75,0.6875 0.475,0.2375 1,0.2375 0.275,0 0.55,-0.075 0.275,-0.075 0.5,-0.225 0.225,-0.15 0.3625,-0.375 0.1375,-0.2375 0.1375,-0.5375 0,-0.4875 -0.3125,-0.75 -0.3125,-0.2625 -0.775,-0.4375 -0.4625,-0.1875 -1.0125,-0.35 -0.55,-0.1625 -1.0125,-0.4375 -0.4625,-0.2875 -0.775,-0.75 -0.3125,-0.475 -0.3125,-1.2625 0,-0.6875 0.275,-1.1875 0.2875,-0.5 0.7375,-0.825 0.4625,-0.3375 1.05,-0.5 0.5875,-0.1625 1.2,-0.1625 0.7,0 1.35,0.2125 0.6625,0.2125 1.1875,0.7 l -1.15,1.2125 z"
         style="font-style:normal;font-variant:normal;font-weight:900;font-stretch:normal;font-size:12.5px;line-height:125%;font-family:Avenir;-inkscape-font-specification:'Avenir Heavy';text-align:start;letter-spacing:0px;word-spacing:0px;text-anchor:start;fill:#648fcb;fill-opacity:1;stroke:none;stroke-width:1px;stroke-linecap:butt;stroke-linejoin:miter;stroke-opacity:1"
         id="path4252"
         inkscape:connector-curvature="0" />
      <path
         d="m 261.80231,1017.5395 q 0,-1.0625 0.35,-1.925 0.35,-0.875 0.9625,-1.4875 0.625,-0.6125 1.475,-0.9375 0.8625,-0.3375 1.8875,-0.3375 1.0375,-0.012 1.9,0.3125 0.8625,0.3125 1.4875,0.925 0.625,0.6125 0.975,1.475 0.35,0.8625 0.35,1.925 0,1.0375 -0.35,1.8875 -0.35,0.85 -0.975,1.4625 -0.625,0.6125 -1.4875,0.9625 -0.8625,0.3375 -1.9,0.35 -1.025,0 -1.8875,-0.325 -0.85,-0.3375 -1.475,-0.9375 -0.6125,-0.6125 -0.9625,-1.4625 -0.35,-0.85 -0.35,-1.8875 z m 1.65,-0.1 q 0,0.7125 0.2125,1.3125 0.225,0.6 0.625,1.0375 0.4,0.4375 0.95,0.6875 0.5625,0.25 1.25,0.25 0.6875,0 1.25,-0.25 0.5625,-0.25 0.9625,-0.6875 0.4,-0.4375 0.6125,-1.0375 0.225,-0.6 0.225,-1.3125 0,-0.6625 -0.225,-1.2375 -0.2125,-0.575 -0.6125,-1 -0.4,-0.4375 -0.9625,-0.675 -0.5625,-0.25 -1.25,-0.25 -0.6875,0 -1.25,0.25 -0.55,0.2375 -0.95,0.675 -0.4,0.425 -0.625,1 -0.2125,0.575 -0.2125,1.2375 z"
         style="font-style:normal;font-variant:normal;font-weight:900;font-stretch:normal;font-size:12.5px;line-height:125%;font-family:Avenir;-inkscape-font-specification:'Avenir Heavy';text-align:start;letter-spacing:0px;word-spacing:0px;text-anchor:start;fill:#648fcb;fill-opacity:1;stroke:none;stroke-width:1px;stroke-linecap:butt;stroke-linejoin:miter;stroke-opacity:1"
         id="path4254"
         inkscape:connector-curvature="0" />
      <path
         d="m 272.73961,1013.077 2.4,0 2.3625,6.2 2.3875,-6.2 2.375,0 0,8.85 -1.5,0 0,-7.35 -0.025,0 -2.6875,7.35 -1.1,0 -2.6875,-7.35 -0.025,0 0,7.35 -1.5,0 0,-8.85 z"
         style="font-style:normal;font-variant:normal;font-weight:900;font-stretch:normal;font-size:12.5px;line-height:125%;font-family:Avenir;-inkscape-font-specification:'Avenir Heavy';text-align:start;letter-spacing:0px;word-spacing:0px;text-anchor:start;fill:#648fcb;fill-opacity:1;stroke:none;stroke-width:1px;stroke-linecap:butt;stroke-linejoin:miter;stroke-opacity:1"
         id="path4256"
         inkscape:connector-curvature="0" />
      <path
         d="m 287.13688,1013.077 1.3625,0 3.8125,8.85 -1.8,0 -0.825,-2.025 -3.8375,0 -0.8,2.025 -1.7625,0 3.85,-8.85 z m 2,5.475 -1.3625,-3.6 -1.3875,3.6 2.75,0 z"
         style="font-style:normal;font-variant:normal;font-weight:900;font-stretch:normal;font-size:12.5px;line-height:125%;font-family:Avenir;-inkscape-font-specification:'Avenir Heavy';text-align:start;letter-spacing:0px;word-spacing:0px;text-anchor:start;fill:#648fcb;fill-opacity:1;stroke:none;stroke-width:1px;stroke-linecap:butt;stroke-linejoin:miter;stroke-opacity:1"
         id="path4258"
         inkscape:connector-curvature="0" />
      <path
         d="m 293.30758,1013.077 1.575,0 0,7.425 3.7625,0 0,1.425 -5.3375,0 0,-8.85 z"
         style="font-style:normal;font-variant:normal;font-weight:900;font-stretch:normal;font-size:12.5px;line-height:125%;font-family:Avenir;-inkscape-font-specification:'Avenir Heavy';text-align:start;letter-spacing:0px;word-spacing:0px;text-anchor:start;fill:#648fcb;fill-opacity:1;stroke:none;stroke-width:1px;stroke-linecap:butt;stroke-linejoin:miter;stroke-opacity:1"
         id="path4260"
         inkscape:connector-curvature="0" />
      <path
         d="m 299.73981,1013.077 1.575,0 0,8.85 -1.575,0 0,-8.85 z"
         style="font-style:normal;font-variant:normal;font-weight:900;font-stretch:normal;font-size:12.5px;line-height:125%;font-family:Avenir;-inkscape-font-specification:'Avenir Heavy';text-align:start;letter-spacing:0px;word-spacing:0px;text-anchor:start;fill:#648fcb;fill-opacity:1;stroke:none;stroke-width:1px;stroke-linecap:butt;stroke-linejoin:miter;stroke-opacity:1"
         id="path4262"
         inkscape:connector-curvature="0" />
      <path
         d="m 306.13102,1013.077 1.3625,0 3.8125,8.85 -1.8,0 -0.825,-2.025 -3.8375,0 -0.8,2.025 -1.7625,0 3.85,-8.85 z m 2,5.475 -1.3625,-3.6 -1.3875,3.6 2.75,0 z"
         style="font-style:normal;font-variant:normal;font-weight:900;font-stretch:normal;font-size:12.5px;line-height:125%;font-family:Avenir;-inkscape-font-specification:'Avenir Heavy';text-align:start;letter-spacing:0px;word-spacing:0px;text-anchor:start;fill:#648fcb;fill-opacity:1;stroke:none;stroke-width:1px;stroke-linecap:butt;stroke-linejoin:miter;stroke-opacity:1"
         id="path4264"
         inkscape:connector-curvature="0" />
      <path
         id="rect5051"
         d="m 129.25699,987.42084 103.82367,0 0,2.44899 -103.82367,0 z"
         style="color:#000000;clip-rule:nonzero;display:inline;overflow:visible;visibility:visible;opacity:1;isolation:auto;mix-blend-mode:normal;color-interpolation:sRGB;color-interpolation-filters:linearRGB;solid-color:#000000;solid-opacity:1;fill:#648fcb;fill-opacity:1;fill-rule:nonzero;stroke:none;stroke-width:1.54343855;stroke-linecap:butt;stroke-linejoin:miter;stroke-miterlimit:4;stroke-dasharray:none;stroke-dashoffset:0;stroke-opacity:1;color-rendering:auto;image-rendering:auto;shape-rendering:auto;text-rendering:auto;enable-background:accumulate" />
    </g>
  </g>
</svg>
